<?xml version="1.0" encoding="UTF-8"?>
<svg version="1.1" xmlns="http://www.w3.org/2000/svg" width="2763" height="849">
<path d="M0 0 C34.11265779 -0.8975339 68.22232338 -1.58226525 102.34421194 -1.99154785 C106.39477702 -2.04031103 110.445319 -2.09079098 114.49584961 -2.14233398 C115.30205734 -2.15256409 116.10826506 -2.1627942 116.93890332 -2.17333431 C129.90423584 -2.34192537 142.86265421 -2.6487302 155.82391734 -3.00895905 C169.17702723 -3.37691346 182.5265833 -3.59094458 195.88455194 -3.6694513 C203.36890264 -3.7176631 210.83887657 -3.83194621 218.31804085 -4.12347221 C269.03191211 -6.04399972 269.03191211 -6.04399972 288.27233285 11.2899515 C296.40300896 19.13296776 303.66734738 27.72114527 310.3456201 36.82351059 C312.0343149 39.17162484 312.0343149 39.17162484 314.65777135 41.48629445 C318.46192322 46.07416984 317.67809849 51.75253521 317.61523914 57.42008018 C317.62100836 58.68990677 317.62677759 59.95973335 317.63272163 61.26803952 C317.64807047 64.80165854 317.63219002 68.33455863 317.61133096 71.8681241 C317.59416451 75.70879791 317.60601301 79.54939856 317.61421841 83.39008677 C317.62459192 90.12415364 317.61636034 96.85799977 317.59602737 103.59204102 C317.56587694 113.60529786 317.56434603 123.61841524 317.56873732 133.63170919 C317.57531031 150.47482518 317.55858659 167.31784317 317.52865028 184.16093063 C317.49907945 200.84109354 317.47982345 217.52121564 317.47438622 234.20140457 C317.47404252 235.23797952 317.47369882 236.27455448 317.47334471 237.34254079 C317.47165307 242.6066406 317.47014614 247.87074044 317.46871033 253.13484032 C317.45820432 290.43415962 317.42450653 327.73342559 317.37719727 365.03271484 C317.33128593 401.27164425 317.29586256 437.51055906 317.2746582 473.74951172 C317.27400057 474.86627638 317.27334294 475.98304105 317.27266538 477.13364707 C317.26607286 488.34851238 317.25969378 499.56337781 317.25347109 510.77824334 C317.24078954 533.62483757 317.22668328 556.47143084 317.2117157 579.31802368 C317.21102925 580.36850566 317.2103428 581.41898763 317.20963555 582.50130239 C317.16362125 652.66755711 317.08439397 722.83378225 317 793 C313.32076486 791.27432846 310.95240101 789.20011156 308.06713867 786.31005859 C307.59012009 785.83493835 307.1131015 785.35981812 306.62162781 784.87030029 C305.04881626 783.30118688 303.48331429 781.72499635 301.91796875 780.1484375 C300.81980817 779.0490835 299.72127623 777.95010035 298.62239075 776.85147095 C296.31863417 774.54615068 294.01827238 772.23751341 291.72045898 769.92626953 C288.79381662 766.9827277 285.86072619 764.04572006 282.92524242 761.11099815 C280.65395656 758.83943839 278.38530179 756.56526588 276.11748695 754.29024124 C275.03813587 753.20773486 273.95820177 752.12580943 272.87764549 751.04450607 C271.356263 749.52092108 269.83823631 747.99406584 268.32104492 746.46630859 C267.03009163 745.1696376 267.03009163 745.1696376 265.71305847 743.84677124 C264.29909812 742.36312402 262.89218226 740.86745512 261.59887296 739.27753562 C257.51433838 734.29011865 252.99653088 730.52745858 247.85653496 726.66184366 C228.28539825 711.77972629 206.91309778 694.15836523 202.97453976 668.63875147 C200.53065736 650.06766183 201.27631901 631.13634355 202.01895428 612.47180441 C202.38429911 603.00969157 202.45021576 593.55131644 202.50273132 584.08314376 C202.60308246 567.20060068 202.9136368 550.32929376 203.37060547 533.45288086 C203.81216781 517.12357743 204.17352397 500.79621734 204.41455078 484.46264648 C204.42952587 483.45066049 204.44450095 482.4386745 204.45992982 481.39602227 C204.62163947 470.34159209 204.76565666 459.28695514 204.90370178 448.2322073 C204.94062067 445.30088828 204.97765306 442.36957076 205.01482618 439.43825496 C205.03922091 437.50617385 205.0633339 435.57408916 205.08716071 433.64200097 C205.23959169 421.39726325 205.46779545 409.15719853 205.7802 396.91550553 C205.93631842 390.76088524 206.06232102 384.60576951 206.17919594 378.45028914 C206.27371276 373.5944055 206.40628741 368.74167419 206.56937116 363.88763643 C206.65889974 360.93562224 206.71017434 357.98385996 206.75058115 355.03080326 C206.7889758 353.05038186 206.87326159 351.07101196 206.95946217 349.09209496 C207.00961446 342.31366651 206.29958942 338.55248231 201.72036743 333.40492916 C200.17129641 331.91091592 198.59811813 330.44142814 197 329 C195.55344501 327.5244881 194.11343913 326.04249131 192.68359375 324.55078125 C191.27082855 323.13542144 189.85547834 321.72263699 188.4375 320.3125 C187.73431641 319.60544922 187.03113281 318.89839844 186.30664062 318.16992188 C185.60603516 317.47060547 184.90542969 316.77128906 184.18359375 316.05078125 C183.57056396 315.43887939 182.95753418 314.82697754 182.32592773 314.1965332 C178.97486518 311.03189483 175.46876276 308.03516741 172 305 C166.39 299.39 160.78 293.78 155 288 C154.67 400.53 154.34 513.06 154 629 C116.42863035 619.60715759 72.68438462 571.78770429 53.08886897 540.43374055 C30.40807694 502.42061044 34.12007943 451.2820368 34.51953125 408.61328125 C34.53496185 406.67908145 34.53496185 406.67908145 34.55070418 404.70580691 C34.82490858 371.82656597 35.99920865 339.01123971 37.57395577 306.17324164 C38.53729188 286.08134348 39.32630022 265.99058672 39.94311523 245.88500977 C39.96433792 245.19655589 39.9855606 244.50810201 40.00742639 243.7987859 C40.4922105 228.04174036 40.92562008 212.28372121 41.30653667 196.52382946 C41.3390708 195.18424016 41.37160908 193.84465096 41.40415153 192.50506186 C41.53264083 187.20255429 41.66078416 181.90004415 41.78337999 176.5973964 C42.1410639 161.19987827 42.64002259 145.82317468 43.41084488 130.44051047 C43.88940738 120.84061559 44.26540528 111.24049399 44.563974 101.63332317 C44.74102319 96.113619 44.9702336 90.6095121 45.34617043 85.09949112 C47.37660446 59.12637538 47.37660446 59.12637538 36.20624352 36.58141136 C29.88462356 29.64347669 22.78665227 23.63844398 15.44133031 17.82149827 C11.977283 15.05070636 9.03704427 12.03319665 6.26205093 8.56830865 C4.96205585 6.95284807 3.56326808 5.55357532 2.0625 4.125 C0 2 0 2 0 0 Z M154 109 C153.773125 116.5075 153.54625 124.015 153.3125 131.75 C153.21235596 134.09448242 153.11221191 136.43896484 153.0090332 138.85449219 C152.45838984 151.01306456 152.45838984 151.01306456 157.62020874 161.57704163 C159.94832964 163.91781929 162.41059662 165.94808633 165 168 C166.30541745 169.30953741 167.59383125 170.63651434 168.85546875 171.98828125 C169.96356864 173.09893143 171.07414088 174.20712195 172.1875 175.3125 C172.73857422 175.86744141 173.28964844 176.42238281 173.85742188 176.99414062 C176.74974766 179.87976345 179.70398884 182.63596971 182.8046875 185.296875 C187.76885653 189.59087225 192.33443351 194.26334368 196.9375 198.9375 C198.63184327 200.65718872 200.32833277 202.37476647 202.02734375 204.08984375 C202.76718506 204.84128662 203.50702637 205.59272949 204.26928711 206.36694336 C205.72463042 208.11438151 205.72463042 208.11438151 207 208 C207 175.33 207 142.66 207 109 C189.51 109 172.02 109 154 109 Z " fill="#FEFEFE" transform="translate(2412,27)"/>
<path d="M0 0 C104.28 0 208.56 0 316 0 C316 83.49 316 166.98 316 253 C312.00367379 251.00183689 309.47626409 248.71846124 306.421875 245.58203125 C305.89160706 245.04656174 305.36133911 244.51109222 304.81500244 243.95939636 C303.12182944 242.24846248 301.43547792 240.53101232 299.75 238.8125 C298.07801558 237.11265725 296.40451089 235.41438698 294.72784424 233.71916199 C293.6874604 232.66678217 292.64975191 231.61174709 291.61541748 230.55342102 C288.94538964 227.84758705 286.20810738 225.28921692 283.3215332 222.81494141 C277.87545787 218.0987562 272.83140625 212.97566438 267.74609375 207.87890625 C266.67585033 206.80933836 265.60545866 205.73991879 264.53492737 204.67063904 C262.30364087 202.44081776 260.07414943 200.2092216 257.84594727 197.97631836 C255.00968112 195.13435568 252.16894769 192.29690758 249.32684231 189.46078587 C247.11923667 187.25681774 244.91404779 185.05044381 242.70955086 182.84336662 C241.66384021 181.79699551 240.61740465 180.75134826 239.57018852 179.70648384 C234.36741762 174.51283882 229.23462809 169.31901467 224.54882812 163.64541626 C222.79916983 161.78664564 220.93043806 160.44269117 218.81640625 159.01953125 C213.32426742 155.04821467 208.03130925 150.90208047 206.56463623 143.93060303 C205.08419833 132.33523345 206.33709202 120.60088971 207 109 C189.18 109 171.36 109 153 109 C152.89941119 117.02137291 152.80990738 125.03067561 152.82154083 133.05069733 C152.82394763 136.78599113 152.80739097 140.5188731 152.74291992 144.25366211 C152.68143476 147.85977413 152.67477762 151.46240874 152.70416832 155.0688839 C152.70605385 156.43590828 152.68906095 157.80310918 152.65177345 159.16962624 C152.49599852 165.27332431 152.56992343 170.07184906 156.28939819 175.08676147 C158.53082804 177.43928752 160.97413172 179.51133852 163.46302605 181.59942436 C165.1436985 183.13094602 166.57696939 184.7603905 168.04878235 186.49360657 C173.3815016 192.71194261 179.27525971 198.39774588 185.07617188 204.17382812 C186.39610245 205.49183672 187.71580345 206.81007525 189.03529358 208.12852478 C191.86462972 210.9547132 194.69550867 213.77934366 197.52760315 216.60276794 C202.01071271 221.07229393 206.48995093 225.54568632 210.96862793 230.01965332 C220.47612187 239.51607231 229.98783912 249.00825604 239.5 258.5 C249.77099371 268.74894802 260.04125054 278.99862796 270.30662394 289.25320578 C274.75399767 293.69561331 279.20379445 298.13557477 283.65549469 302.57364655 C286.42928053 305.33994512 289.20096792 308.10833903 291.97210503 310.87729073 C293.25187685 312.15519904 294.53250855 313.43224693 295.81408882 314.7083416 C307.53922748 326.38489213 307.53922748 326.38489213 312.73314667 332.5178299 C313.76724158 333.72768152 314.87459046 334.87459046 316 336 C316.31042092 338.48055416 316.49715056 340.86452557 316.60388184 343.35601807 C316.66359594 344.50812023 316.66359594 344.50812023 316.72451639 345.68349719 C316.85485597 348.27330313 316.96995055 350.86352943 317.08398438 353.45410156 C317.17180441 355.30764693 317.25971764 357.16118788 317.34771729 359.01472473 C318.13405028 376.1430803 318.59257093 393.28136037 318.96212006 410.42323685 C319.21606093 421.91670928 319.56955628 433.38830949 320.18359375 444.86865234 C324.52475019 527.64432251 324.52475019 527.64432251 302.25643253 553.17451048 C291.16731919 565.38770993 278.2114086 575.55573056 264.7540741 585.00955963 C257.70040813 590.10742592 251.62590182 596.23396555 245.5078125 602.39453125 C244.7001947 603.20360931 243.8925769 604.01268738 243.06048584 604.84628296 C241.31994465 606.5906082 239.5805589 608.336087 237.84222412 610.08261108 C235.0861786 612.85150234 232.32694953 615.61718583 229.56689453 618.38208008 C223.70827498 624.25174293 217.85390931 630.12564009 212 636 C205.21279918 642.81091186 198.42390742 649.62012083 191.63079834 656.42514038 C188.9212322 659.14115772 186.21471172 661.86018485 183.50830078 664.5793457 C181.83641228 666.254869 180.16438194 667.93025079 178.4921875 669.60546875 C177.74805603 670.35476654 177.00392456 671.10406433 176.23724365 671.87606812 C172.2580624 675.85564657 168.17773726 679.63465621 163.91647339 683.30937195 C160.80679044 686.0525967 157.89502892 688.98195363 154.9765625 691.92578125 C154.32500183 692.57880219 153.67344116 693.23182312 153.00213623 693.90463257 C151.60208514 695.3084591 150.20318925 696.71343853 148.80535889 698.11947632 C146.58701179 700.35070887 144.36544938 702.57869592 142.14306641 704.8059082 C137.42588472 709.53445954 132.71264924 714.26693201 128 719 C122.53448019 724.48920057 117.06731148 729.97673766 111.59588623 735.46005249 C109.41812903 737.64424355 107.24343039 739.83144794 105.06884766 742.01879883 C103.72052748 743.37075495 102.37206477 744.72256896 101.0234375 746.07421875 C100.42891785 746.67390472 99.83439819 747.2735907 99.22186279 747.89144897 C95.5516226 751.56214182 91.74305219 755.01247387 87.81718063 758.40768623 C85.60656882 760.34474607 83.51730145 762.37608933 81.45166016 764.46655273 C80.65788971 765.2668541 79.86411926 766.06715546 79.04629517 766.89170837 C78.21890839 767.73053055 77.39152161 768.56935272 76.5390625 769.43359375 C74.7514316 771.23385258 72.9636674 773.03397904 71.17578125 774.83398438 C68.38238196 777.65234679 65.59043251 780.47212388 62.80126953 783.29467773 C60.0931722 786.0327915 57.37904261 788.76480702 54.6640625 791.49609375 C53.82453033 792.34908554 52.98499817 793.20207733 52.12002563 794.08091736 C51.34516815 794.85915359 50.57031067 795.63738983 49.77197266 796.43920898 C49.08994781 797.12869125 48.40792297 797.81817352 47.70523071 798.52854919 C46 800 46 800 44 800 C44 631.7 44 463.4 44 290 C47.96104843 290.99026211 49.36693423 291.81127398 52.460495 294.27877808 C53.7918503 295.33902238 53.7918503 295.33902238 55.15010166 296.42068577 C56.11594653 297.20595614 57.0817914 297.99122652 58.0769043 298.80029297 C59.61114626 300.0440729 59.61114626 300.0440729 61.17638302 301.3129797 C74.74258073 312.38417361 87.81329014 324.01061498 100.6875 335.875 C101.3086511 336.44542448 101.9298022 337.01584895 102.56977606 337.60355902 C133.89094709 366.42031747 158.43488325 392.67119339 160.54988021 436.77490282 C160.89461104 445.89018639 160.58500684 454.96056128 160.0625 464.0625 C160.02409359 464.7527637 159.98568717 465.4430274 159.94611692 466.15420818 C158.9378892 483.8969288 156.98923931 501.47841047 154 519 C174.45107477 506.21712982 199.84201468 488.25600105 206.87857056 463.96736908 C210.88752746 446.24208143 210.5749548 427.8767623 210.25 409.8125 C210.22589156 407.32135029 210.20180292 404.83020039 210.17773438 402.33905029 C210.09378749 396.32098419 209.88511406 390.3191465 209.56902313 384.30887032 C209.45196029 382.06841961 209.3529844 379.82693544 209.27393341 377.5848217 C208.74978451 364.97774578 207.0736111 355.97362986 197.76912785 347.08350563 C196.15197953 345.60086262 194.52555293 344.12830608 192.89236069 342.66335487 C189.51290883 339.5514748 186.27924149 336.31915806 183.05264282 333.05021667 C182.42368738 332.41345823 181.79473194 331.77669979 181.14671725 331.12064564 C179.82025386 329.77745417 178.49393664 328.43411833 177.16775405 327.0906496 C173.61495813 323.50246908 170.03791306 319.93865767 166.46159363 316.37394714 C164.94671651 314.86325438 163.43185144 313.35254953 161.91699791 311.84183311 C161.15259699 311.07964399 160.38819606 310.31745487 159.60063148 309.5321691 C155.64281605 305.58444297 151.68833229 301.63338253 147.7335968 297.68257141 C137.72122404 287.68121496 127.70456935 277.68415213 117.6875 267.6875 C106.82395276 256.84602328 95.96118426 246.00377224 85.10325271 235.15667087 C80.4047059 230.46310092 75.70373414 225.77197754 71.00087774 221.08272588 C68.08636717 218.17566397 65.17392042 215.26654123 62.26203537 212.35684967 C60.91123055 211.00791895 59.55956052 209.659854 58.20696831 208.31271553 C56.36297682 206.47592731 54.52208521 204.63608681 52.68193054 202.79545593 C51.87680079 201.99571862 51.87680079 201.99571862 51.0554058 201.17982501 C44.16389008 194.26914549 44.16389008 194.26914549 43.64596558 190.25839901 C43.65564362 189.19971898 43.66532166 188.14103895 43.67529297 187.05027771 C43.67865158 185.83220932 43.68201019 184.61414093 43.68547058 183.35916138 C43.70418754 182.01214336 43.72309975 180.66512805 43.7421875 179.31811523 C43.75118151 177.89697596 43.75869754 176.47582667 43.7648468 175.05467224 C43.78022782 171.99456969 43.80406618 168.93468866 43.83383179 165.87469292 C43.87888078 161.0280249 43.89259158 156.18158621 43.8996582 151.33473206 C43.92316091 137.55214098 43.96356812 123.7700936 44.09228516 109.98803711 C44.1631265 102.37553468 44.19447601 94.76393813 44.18199539 87.15110356 C44.17709031 83.1262547 44.19232784 79.10376231 44.25653076 75.07937431 C44.31691272 71.2871352 44.3253913 67.49819166 44.2957058 63.70562172 C44.29307083 61.66663967 44.34482568 59.62780894 44.39875793 57.58953857 C44.2981526 51.10359447 43.60868267 46.97564392 39.13951588 42.26993471 C36.84350579 40.08103423 34.4226998 38.04652287 32 36 C30.84304313 34.73172702 29.70770209 33.44232146 28.62109375 32.11328125 C25.5380954 28.50618237 22.22687577 25.18134357 18.84765625 21.85546875 C18.29830414 21.313992 17.74895203 20.77251526 17.18295288 20.21463013 C14.89242195 17.9606906 12.59898069 15.70988815 10.29663086 13.46801758 C8.59863268 11.81214396 6.9100579 10.14712968 5.22265625 8.48046875 C4.69777115 7.97420456 4.17288605 7.46794037 3.63209534 6.94633484 C2.3633616 5.68677109 1.1738718 4.34841059 0 3 C0 2.01 0 1.02 0 0 Z " fill="#FCFCFC" transform="translate(30,27)"/>
<path d="M0 0 C50.82 0 101.64 0 154 0 C169.98026316 28.53618421 169.98026316 28.53618421 175.125 38.1875 C176.29376657 40.36875985 177.46304594 42.54974501 178.6328125 44.73046875 C179.19774414 45.78411621 179.76267578 46.83776367 180.34472656 47.92333984 C182.87540048 52.62710868 185.43653449 57.31404481 188 62 C198.84442365 81.84026353 209.50056533 101.78266265 220.17094421 121.71688843 C222.33973277 125.76811344 224.51109921 129.81794881 226.68359375 133.8671875 C234.22107272 147.91938717 241.72493633 161.98879117 249.19091797 176.07910156 C249.53347122 176.72501755 249.87602448 177.37093353 250.22895813 178.03642273 C251.15188955 179.7767174 252.07414195 181.51737213 252.99633789 183.25805664 C255.63578943 188.18736988 258.32249997 193.09124995 261 198 C261.33 132.66 261.66 67.32 262 0 C298.3 0 334.6 0 372 0 C372 174.9 372 349.8 372 530 C335.7 530 299.4 530 262 530 C262.5625 493.625 262.5625 493.625 262.87329102 482.38134766 C263.11964656 458.22154924 257.43363808 441.30184958 245.01758385 420.71873283 C242.90853162 417.15647374 240.98588948 413.49197194 239.03871155 409.8397522 C237.65940508 407.25995238 236.24711217 404.70050738 234.82421875 402.14453125 C231.78433501 396.6469591 228.88810967 391.07842278 226 385.5 C221.64576245 377.10218884 217.18601722 368.77062649 212.63842773 360.47607422 C208.74636962 353.37682928 204.89617986 346.25592965 201.0625 339.125 C199.87765227 336.9231512 198.69275651 334.72132824 197.5078125 332.51953125 C195.7790192 329.30680136 194.05048787 326.09393332 192.32324219 322.88037109 C186.49397681 312.04098547 180.5992718 301.25270027 174.5 290.5625 C167.73135685 278.52212517 161.37243467 266.25468207 155 254 C154.67 345.08 154.34 436.16 154 530 C117.7 530 81.4 530 44 530 C44.15094116 508.2036853 44.15094116 508.2036853 44.30493164 485.96704102 C44.50855319 454.85456083 44.67939948 423.74236651 44.77256775 392.62937927 C44.77460944 391.95051773 44.77665113 391.27165619 44.77875469 390.57222308 C44.82295104 375.81496656 44.86156963 361.05770037 44.89445097 346.30041442 C44.91061236 339.06233428 44.92800492 331.82425733 44.94604492 324.58618164 C44.94781906 323.86594675 44.94959319 323.14571187 44.95142108 322.40365168 C45.00939342 299.10284851 45.14849383 275.80339764 45.33014917 252.50325789 C45.51655828 228.53795531 45.62015741 204.5736632 45.62113865 180.60760216 C45.62131579 177.21440846 45.62242912 173.82121566 45.62411308 170.42802238 C45.62441551 169.76026313 45.62471793 169.09250387 45.62502952 168.40450948 C45.63272239 157.04165414 45.74171963 145.68173825 45.87481623 134.31971829 C45.98632495 124.18960749 46.00457475 114.06192773 45.95136464 103.93135548 C45.92340448 98.09465856 45.93474717 92.26547374 46.05751228 86.42983627 C47.36084425 59.37442957 47.36084425 59.37442957 35.86405594 35.99473194 C31.26991963 31.22287342 26.17778584 27.16302387 20.8621062 23.23009002 C17.58654008 20.67784115 14.98989916 17.91737779 12.38459641 14.70124155 C9.72583124 11.43443993 6.60818346 8.60400692 3.56835938 5.6953125 C2.34320509 4.49904535 1.16677125 3.25327689 0 2 C0 1.34 0 0.68 0 0 Z " fill="#FAFAFA" transform="translate(1070,27)"/>
<path d="M0 0 C19.81009872 -0.30390006 39.61972356 -0.53302911 59.43167114 -0.67355824 C68.63118479 -0.74054847 77.82924895 -0.83184477 87.02783203 -0.98071289 C95.0469812 -1.11043123 103.06508072 -1.19418837 111.0852499 -1.22315043 C115.33121656 -1.24007848 119.57418099 -1.27974112 123.81918335 -1.37449074 C127.81914008 -1.46304377 131.81487385 -1.48989897 135.8157177 -1.47039986 C137.28001861 -1.47396369 138.74446698 -1.49966623 140.20791817 -1.54967117 C144.75882116 -1.69748591 148.71100511 -1.59030487 153 0 C156.67913872 3.96078972 158.74173839 8.07950568 161 13 C162.1280303 15.06811747 163.26677175 17.13047448 164.421875 19.18359375 C165.53505909 21.26619763 166.64434152 23.35089102 167.75 25.4375 C168.97342889 27.72814744 170.19739577 30.0185076 171.421875 32.30859375 C172.02451172 33.43765137 172.62714844 34.56670898 173.24804688 35.72998047 C175.80457564 40.50173998 178.40018266 45.25172856 181 50 C187.12533506 61.20390979 193.17618638 72.44745673 199.22216797 83.69433594 C200.97070938 86.94553763 202.72127383 90.19564046 204.47265625 93.4453125 C214.43505327 111.93064069 224.38819239 130.42118918 234.234375 148.96875 C234.59512619 149.64827728 234.95587738 150.32780457 235.32756042 151.02792358 C237.04900569 154.27126804 238.76928853 157.51522102 240.48754883 160.76025391 C247.26386979 173.54068482 254.14117131 186.2621753 261 199 C261.33 133.33 261.66 67.66 262 0 C297.97 0 333.94 0 371 0 C371 174.9 371 349.8 371 530 C335.03 530 299.06 530 262 530 C262.309375 512.30375 262.309375 512.30375 262.625 494.25 C262.61973667 466.5964384 261.81236804 444.38046658 245.26611328 421.24951172 C241.92664655 416.46085603 239.31421386 411.35825222 236.625 406.1875 C235.6848283 404.48023184 234.7396304 402.77572046 233.7890625 401.07421875 C230.75845204 395.60139331 227.87596522 390.05525153 225 384.5 C220.64653922 376.1036366 216.18792686 367.77331136 211.640625 359.48046875 C207.7250536 352.33911574 203.85494502 345.17424669 200 338 C192.4225758 323.90995305 184.79515268 309.84850312 177.046875 295.8515625 C175.65607296 293.33863959 174.26540529 290.82564245 172.875 288.3125 C172.53340851 287.69509949 172.19181702 287.07769897 171.83987427 286.44158936 C165.72749766 275.38643566 159.65024817 264.30049633 154 253 C153.505 390.115 153.505 390.115 153 530 C117.03 530 81.06 530 44 530 C44.01683838 515.41562744 44.03367676 500.83125488 44.05102539 485.80493164 C44.08280269 454.61590789 44.10289666 423.42693622 44.09507751 392.23789978 C44.09491029 391.55823906 44.09474307 390.87857834 44.09457078 390.17832184 C44.09086967 375.40739737 44.08516805 360.6364743 44.07740569 345.86555142 C44.0736112 338.62187494 44.07025877 331.37819828 44.06713867 324.13452148 C44.06666166 323.0532732 44.06666166 323.0532732 44.066175 321.95018152 C44.05607485 298.58666188 44.07516418 275.22327692 44.10939364 251.85978371 C44.14441523 227.85036872 44.1499826 203.8411227 44.11849881 179.83169842 C44.11406551 176.44040078 44.10996885 173.0491028 44.10607719 169.65780449 C44.10530085 168.99034961 44.10452451 168.32289474 44.10372464 167.63521396 C44.09281449 157.55711399 44.10779048 147.47925959 44.13676643 137.40120125 C44.16952988 125.93446651 44.17229056 114.46823446 44.13534261 103.00150324 C44.11746406 97.14905607 44.11427689 91.29755832 44.15022469 85.44517326 C44.18281518 80.08712671 44.17397405 74.7308052 44.13215785 69.37283748 C44.1243476 67.43460092 44.13175166 65.49623089 44.15590347 63.55812908 C44.54324903 53.28537048 44.54324903 53.28537048 41.03634536 43.94041526 C38.80637808 41.69560341 36.54288862 39.87125527 34 38 C32.87784759 36.77456852 31.78364476 35.52202729 30.73828125 34.23046875 C27.63249614 30.61407 24.31319353 27.26665419 20.91796875 23.92578125 C20.37351105 23.38919891 19.82905334 22.85261658 19.26809692 22.29977417 C16.99951551 20.06770466 14.72810608 17.83869396 12.44750977 15.61889648 C10.76420388 13.97795289 9.09052497 12.32767057 7.41796875 10.67578125 C6.64612495 9.93186882 6.64612495 9.93186882 5.85868835 9.17292786 C2.93966417 6.27500809 1.39778463 3.83304032 0 0 Z " fill="#FEFEFE" transform="translate(687,27)"/>
<path d="M0 0 C34.51494939 -0.1602467 69.0298138 -0.28357999 103.54505488 -0.35745731 C107.62053199 -0.36621218 111.69600836 -0.37527244 115.77148438 -0.38452148 C116.58283311 -0.38635766 117.39418184 -0.38819383 118.2301169 -0.39008565 C131.36480811 -0.42053909 144.49928469 -0.47572779 157.63384861 -0.54006957 C171.11266176 -0.60554668 184.59136257 -0.6444149 198.07032824 -0.65861946 C206.38669267 -0.66822107 214.70245049 -0.69853783 223.01862818 -0.75541527 C228.72254347 -0.79243758 234.42614549 -0.80359622 240.13017219 -0.79450964 C243.4206699 -0.79002881 246.70988593 -0.80069576 250.00024414 -0.83443832 C253.57160516 -0.86926803 257.14037094 -0.86089517 260.71179199 -0.84178162 C262.2643448 -0.87236645 262.2643448 -0.87236645 263.84826231 -0.90356916 C270.40405285 -0.80872887 273.73522824 0.57684504 278.38075209 5.24488109 C278.9151039 5.82407033 279.44945571 6.40325957 280 7 C280.89920166 7.85650146 281.79840332 8.71300293 282.72485352 9.59545898 C283.51819092 10.38766846 284.31152832 11.17987793 285.12890625 11.99609375 C286.01900391 12.88490234 286.90910156 13.77371094 287.82617188 14.68945312 C288.72916016 15.59630859 289.63214844 16.50316406 290.5625 17.4375 C291.9227832 18.79198242 291.9227832 18.79198242 293.31054688 20.17382812 C297.77766869 24.64742873 302.16281278 29.1251677 306.17454958 34.0158782 C307.91514874 36.04758558 307.91514874 36.04758558 310.04309797 37.4425149 C314.0922205 40.48838011 315.79068811 42.88236925 316.73426914 47.92066479 C317.11973175 53.08124457 317.02843881 58.24189382 316.96203613 63.41247559 C316.96552565 65.42404183 316.97253198 67.43560453 316.98274946 69.44714785 C317.00063578 74.97070436 316.96864304 80.49301963 316.92852497 86.01641798 C316.89398341 91.97406934 316.90566781 97.93165046 316.91174316 103.88937378 C316.9159384 114.21009577 316.89111386 124.53044201 316.84584045 134.85105896 C316.79848583 145.67388324 316.76770926 156.49654614 316.75901794 167.31947327 C316.75846803 167.99268788 316.75791811 168.6659025 316.75735153 169.35951756 C316.75464482 172.77850758 316.75223377 176.19749773 316.74993652 179.61648804 C316.73313823 203.82614087 316.67925356 228.03558302 316.60351562 252.24511719 C316.53002744 275.76268392 316.47336485 299.28019299 316.43945312 322.79785156 C316.43787481 323.88544001 316.43787481 323.88544001 316.43626461 324.99499994 C316.42571635 332.27641492 316.41550985 339.55783034 316.40555374 346.83924615 C316.38526465 361.67200865 316.36269463 376.50476739 316.33874512 391.33752441 C316.33709764 392.36047836 316.33709764 392.36047836 316.33541688 393.40409804 C316.26182549 438.93617213 316.12993709 484.46804426 316 530 C280.03 530 244.06 530 207 530 C207.49628906 516.78066406 207.99257812 503.56132813 208.50390625 489.94140625 C208.70919301 481.45966069 208.90148492 472.9807227 209.03710938 464.49804688 C209.25380612 451.09010468 209.51793287 437.69728217 210.1237793 424.30053711 C214.60097145 367.63470598 214.60097145 367.63470598 191.70606518 318.31020641 C181.41210356 307.40601252 169.52155223 298.19278616 157 290 C156.01 289.34 155.02 288.68 154 288 C153.67 367.86 153.34 447.72 153 530 C117.03 530 81.06 530 44 530 C44.0220752 515.42086426 44.04415039 500.84172852 44.06689453 485.82080078 C44.10940228 454.64060298 44.13892054 423.46046654 44.13742065 392.28024292 C44.13739149 391.60072026 44.13736232 390.9211976 44.13733227 390.22108334 C44.13662407 375.45292709 44.13369257 360.68477207 44.12847102 345.91661675 C44.12592388 338.67422898 44.123868 331.43184111 44.12207031 324.18945312 C44.12178943 323.10840098 44.12178943 323.10840098 44.12150288 322.0055094 C44.11566463 298.6489606 44.14226036 275.29258571 44.18569086 251.93608093 C44.23015309 227.9325342 44.24186368 203.92918867 44.2124138 179.92561341 C44.20826869 176.53463652 44.20449766 173.1436593 44.20095444 169.75268173 C44.20024552 169.08529428 44.1995366 168.41790683 44.19880619 167.73029551 C44.18900685 157.65571684 44.20796422 147.58144831 44.24249649 137.5069313 C44.28156391 126.04275582 44.28724901 114.57919368 44.24884398 103.11500461 C44.2303317 97.26437359 44.22810602 91.41491905 44.26943016 85.56437874 C44.30691547 80.2067657 44.29826119 74.85127152 44.25305675 69.49373637 C44.24483111 67.55682375 44.25347399 65.61974978 44.28078665 63.68301226 C44.63019329 53.17931978 44.63019329 53.17931978 40.80773711 43.71180701 C38.32908904 41.21835497 35.79511085 39.12273785 33 37 C31.85751095 35.75583652 30.74209148 34.48508549 29.6796875 33.171875 C26.58523138 29.56016375 23.2700413 26.22400894 19.8828125 22.890625 C19.33590759 22.35159546 18.78900269 21.81256592 18.2255249 21.25720215 C15.94596866 19.01419771 13.6635428 16.77429166 11.37207031 14.54345703 C9.68141871 12.89504799 8.00029148 11.23740007 6.3203125 9.578125 C5.80058868 9.07702209 5.28086487 8.57591919 4.74539185 8.05963135 C2.09718998 5.43057284 0.70793673 3.64703495 0 0 Z M153 109 C152.855625 116.425 152.71125 123.85 152.5625 131.5 C152.49877197 133.82869141 152.43504395 136.15738281 152.36938477 138.55664062 C152.34892144 140.42314845 152.3310884 142.28968775 152.31640625 144.15625 C152.28059448 145.10854492 152.24478271 146.06083984 152.20788574 147.04199219 C152.20324395 152.16122305 152.69114244 155.26241032 156.08007812 159.20678711 C157.36611511 160.49214186 158.67314208 161.75682824 160 163 C161.20453417 164.2421711 162.40629259 165.48704003 163.60522461 166.73461914 C164.86825621 168.00413159 166.1340595 169.27089135 167.40234375 170.53515625 C168.08373917 171.21750839 168.76513458 171.89986053 169.46717834 172.60289001 C170.89705741 174.03344437 172.32817911 175.46275767 173.76049805 176.89086914 C175.93197711 179.05699074 178.09806325 181.22840174 180.26367188 183.40039062 C181.66374202 184.79979987 183.06412238 186.19889884 184.46484375 187.59765625 C185.10155502 188.23639175 185.7382663 188.87512726 186.39427185 189.53321838 C190.7692235 193.88583593 195.31314547 197.98685587 200 202 C202.31 203.98 204.62 205.96 207 208 C207 175.33 207 142.66 207 109 C189.18 109 171.36 109 153 109 Z " fill="#FDFDFD" transform="translate(1454,27)"/>
<path d="M0 0 C34.06125431 -0.96707574 68.11902411 -1.70421603 102.19101595 -2.14474384 C106.23771782 -2.19725657 110.28439286 -2.25161974 114.33105469 -2.30712891 C115.13647548 -2.31814594 115.94189628 -2.32916298 116.77172376 -2.34051387 C129.71623056 -2.52196334 142.65268693 -2.85229214 155.59245895 -3.24041744 C168.92856095 -3.63701197 182.26053313 -3.86723553 195.60228646 -3.95171678 C203.07606063 -4.00358951 210.53311845 -4.12623671 218.00085068 -4.44066238 C268.3029094 -6.49883691 268.3029094 -6.49883691 287.76969118 10.90509273 C316.19381832 37.12321445 316.19381832 37.12321445 317.29637527 47.89573002 C317.31791042 49.08635264 317.33944557 50.27697527 317.3616333 51.50367737 C317.37604234 52.1673266 317.39045137 52.83097583 317.40529704 53.51473564 C317.45081616 55.7435609 317.48190316 57.97234199 317.51269531 60.20141602 C317.54159605 61.79825926 317.57111141 63.39509147 317.60119629 64.99191284 C317.86239453 79.61087947 317.99367339 94.2329191 318.09688187 108.85376072 C318.17447882 119.64769399 318.31072917 130.43741503 318.52597737 141.22950035 C318.67243735 148.83225615 318.74866889 156.43387227 318.77493358 164.0379805 C318.79255758 168.57131697 318.840101 173.09945289 318.96427155 177.63122749 C319.7811545 208.80223648 319.7811545 208.80223648 310.77399826 218.60098934 C307.74010273 221.39643909 304.57867482 223.87900878 301.22253513 226.27414513 C298.24471634 228.58649691 295.92505293 231.26305334 293.53209209 234.16134739 C290.94640692 237.26440942 288.05813194 240.06519678 285.19140625 242.90625 C284.57982162 243.51641968 283.968237 244.12658936 283.33811951 244.75524902 C281.41528198 246.67256165 279.48896906 248.58633702 277.5625 250.5 C276.24520941 251.81226585 274.92815014 253.12476395 273.61132812 254.4375 C270.4102139 257.62768506 267.20598135 260.81470651 264 264 C268.16447517 268.97309568 272.50559801 273.62936384 277.12109375 278.18359375 C277.78407974 278.84279312 278.44706573 279.50199249 279.13014221 280.1811676 C281.93524066 282.97009346 284.74629681 285.7529851 287.55688477 288.53637695 C289.62207178 290.58332833 291.68413321 292.63339306 293.74609375 294.68359375 C294.6807975 295.60584999 294.6807975 295.60584999 295.63438416 296.54673767 C299.28086365 300.17316695 302.73213907 303.88874204 306.01029205 307.85327148 C307.92424235 310.05886286 307.92424235 310.05886286 310.28528404 311.65278435 C314.48853644 314.88842705 317.08528241 317.86866063 317.81607342 323.18506145 C318.22901223 328.58454364 318.11416527 333.98107037 318.02172852 339.39086914 C318.01918776 341.47098683 318.02061894 343.55111258 318.02571106 345.63122559 C318.02828786 351.2613905 317.97546709 356.88982123 317.91254544 362.51958394 C317.8561903 368.40916038 317.85098954 374.29877891 317.84031677 380.18858337 C317.81237091 391.334071 317.73855257 402.4787618 317.64817137 413.62389892 C317.52865478 428.6896199 317.48016203 443.75555959 317.42765141 458.82163525 C317.34308621 482.5483534 317.16377123 506.27339024 317 530 C280.7 530 244.4 530 207 530 C207.00902344 516.305 207.01804687 502.61 207.02734375 488.5 C207.01750779 479.83200206 207.00590925 471.16406608 206.98632812 462.49609375 C206.95556619 448.73315923 206.93206947 434.97048296 206.95532227 421.20751953 C206.97222373 411.18420811 206.96461818 401.16126524 206.92765242 391.1380024 C206.90893503 385.83121352 206.90244371 380.52504789 206.92530632 375.21826172 C206.94644833 370.22094004 206.93476726 365.2247591 206.89815521 360.22753716 C206.89047589 358.39581771 206.89468138 356.56400291 206.91181374 354.73234749 C207.35034933 343.64037615 207.35034933 343.64037615 202.61254883 334.02345276 C201.43961959 332.97942697 200.23749057 331.96662813 199 331 C198.11320557 330.07050537 197.22641113 329.14101074 196.31274414 328.18334961 C195.47864014 327.34811768 194.64453613 326.51288574 193.78515625 325.65234375 C193.32572128 325.19195206 192.86628632 324.73156036 192.39292908 324.25721741 C191.43383264 323.29744921 190.47350765 322.33890713 189.51196289 321.3815918 C188.06475615 319.93974779 186.62297974 318.49262884 185.18164062 317.04492188 C181.28192914 313.14270055 177.39053121 309.26489689 173.18359375 305.69140625 C166.84250418 300.09632722 160.97972935 293.97972935 155 288 C154.67 367.86 154.34 447.72 154 530 C117.7 530 81.4 530 44 530 C44.11633789 515.48483398 44.23267578 500.96966797 44.35253906 486.01464844 C44.58841892 454.92867438 44.78752234 423.84305076 44.89959717 392.75640869 C44.90328096 391.73873763 44.90328096 391.73873763 44.90703917 390.70050756 C44.96021889 375.95155979 45.00714714 361.20259831 45.04764695 346.45361041 C45.06754967 339.21939563 45.08883198 331.98518521 45.11083984 324.75097656 C45.11408946 323.67121265 45.11408946 323.67121265 45.11740473 322.56963532 C45.18811281 299.2896096 45.34969307 276.01130687 45.55904083 252.73214955 C45.77391591 228.78446811 45.89583341 204.83803348 45.90288362 180.88934713 C45.90392506 177.49711534 45.90601526 174.10488495 45.90874481 170.71265411 C45.90924951 170.04509713 45.9097542 169.37754014 45.91027419 168.68975415 C45.92170644 157.33933195 46.04655805 145.99289098 46.19856563 134.64346769 C46.32613199 124.51879891 46.34890881 114.39715499 46.29186878 104.27185962 C46.26203169 98.44011619 46.27589018 92.6178175 46.41512871 86.7874527 C47.51911333 58.91699802 47.51911333 58.91699802 34.97291063 35.10358663 C29.77986983 29.73169949 24.06645455 25.04132769 18.14043188 20.5084157 C14.20280384 17.4561866 11.1018599 13.87613717 8 10 C5.86974303 7.84580756 3.69724457 5.75335251 1.50390625 3.6640625 C0 2 0 2 0 0 Z M154 109 C153.7525 116.486875 153.505 123.97375 153.25 131.6875 C153.14075195 134.02287842 153.03150391 136.35825684 152.91894531 138.7644043 C152.44052036 151.20740357 152.44052036 151.20740357 157.95057678 161.93608093 C160.03017739 164.03442859 162.18942603 165.96024841 164.50030518 167.80007935 C166.51358768 169.41092658 168.31399729 171.21008392 170.14453125 173.0234375 C171.3632282 174.14494272 172.58584866 175.26220051 173.8125 176.375 C181.76148266 183.70272533 189.40554007 191.30733585 197 199 C201.66775793 196.80689406 204.75004484 194.77716572 207 190 C207.84932246 183.86334407 207.69847475 177.78025311 207.5859375 171.59765625 C207.57473675 169.79163526 207.56620071 167.98559596 207.56021118 166.17955017 C207.53738182 161.44278995 207.47851035 156.70714641 207.4119873 151.9708252 C207.33960161 146.27911199 207.31223059 140.58702385 207.27726746 134.89498138 C207.21922643 126.26254602 207.10421598 117.63255723 207 109 C189.51 109 172.02 109 154 109 Z " fill="#FEFEFE" transform="translate(2097,27)"/>
<path d="M0 0 C104.61 0 209.22 0 317 0 C317 83.49 317 166.98 317 253 C312.79231421 250.8961571 309.85512464 248.30330481 306.49047852 245.10717773 C305.83830888 244.4926068 305.18613924 243.87803587 304.51420689 243.24484158 C295.56385334 234.75824725 286.86756435 226.01160458 278.15234375 217.28515625 C276.28258038 215.4160683 274.41266975 213.54712859 272.5426178 211.67832947 C268.65397894 207.79149263 264.76741455 203.90259093 260.88208008 200.01245117 C256.4082204 195.53312185 251.93072869 191.05744724 247.45139498 186.58359247 C243.10553366 182.24283099 238.76250609 177.89924576 234.4206562 173.55447197 C232.58703459 171.72018583 230.75267692 169.88663517 228.91755486 168.05385017 C226.35788767 165.49673139 223.80146234 162.93641415 221.24584961 160.37524414 C220.49617416 159.62759293 219.74649872 158.87994171 218.97410583 158.1096344 C215.75714077 154.87974312 212.57748213 151.62125335 209.52720642 148.23275757 C209.05263976 147.7062026 208.5780731 147.17964764 208.08912563 146.63713646 C205.99456751 143.48866821 206.26259333 140.10032099 206.4140625 136.44140625 C206.42010498 135.7407605 206.42614746 135.04011475 206.43237305 134.3182373 C206.46346887 131.73238125 206.54723702 129.14737357 206.625 126.5625 C206.74875 120.766875 206.8725 114.97125 207 109 C189.51 109 172.02 109 154 109 C154 142.33 154 175.66 154 210 C162.146875 208.906875 170.29375 207.81375 178.6875 206.6875 C197.08646881 205.52230133 209.73033982 207.80435275 223.65756035 219.91547203 C229.3957373 225.08622402 234.78464023 230.55112612 240.0625 236.1875 C240.6503616 236.8110928 241.23822319 237.43468559 241.84389877 238.07717514 C245.79943115 242.28909794 249.67220767 246.5656629 253.47265625 250.91796875 C253.97510235 251.49180801 254.47754845 252.06564728 254.99522018 252.65687561 C256.39688929 254.277233 257.77164832 255.91610306 259.13696289 257.56713867 C259.91181534 258.49757492 260.68666779 259.42801117 261.48500061 260.38664246 C263 263 263 263 262.93223572 265.64556885 C261.91651381 268.21085062 261.03345393 269.32960579 258.94726562 271.10375977 C258.30889771 271.66659164 257.67052979 272.22942352 257.01281738 272.80931091 C256.31765015 273.40977737 255.62248291 274.01024384 254.90625 274.62890625 C248.76936129 280.11656925 243.56604372 285.8369776 238.53125 292.33984375 C217.0486746 319.03764683 217.0486746 319.03764683 199.03057861 321.07270813 C183.82336498 322.10304905 169.32005575 320.33864565 154 319 C154 352.33 154 385.66 154 420 C171.49 420 188.98 420 207 420 C206.6061793 408.60032391 206.6061793 408.60032391 206.09912109 397.20556641 C205.76230088 385.90401472 205.76230088 385.90401472 209.02441406 380.88574219 C211.6015625 378.3359375 211.6015625 378.3359375 214.15087891 376.31396484 C216.51044905 374.39759759 218.22798267 372.66348101 220.1716156 370.36991882 C223.9700472 365.97971948 227.99385837 361.86518854 232.10327148 357.76733398 C233.27058807 356.59738892 233.27058807 356.59738892 234.46148682 355.40380859 C237.01219473 352.84873096 239.56650589 350.29729174 242.12109375 347.74609375 C243.90811008 345.95840298 245.69497801 344.17056386 247.48170471 342.38258362 C251.21803187 338.64478609 254.95610467 334.9087432 258.69555664 331.17407227 C263.00031831 326.87475137 267.30146608 322.57184027 271.60075516 318.26704735 C275.76048969 314.10220373 279.92306013 309.94020494 284.08680916 305.77937508 C285.84770042 304.01914814 287.60785677 302.25818568 289.36724663 300.49645805 C291.83152235 298.02962646 294.29900922 295.56605074 296.76733398 293.10327148 C297.48498428 292.38359695 298.20263458 291.66392242 298.94203186 290.92243958 C310.82716274 279.08641863 310.82716274 279.08641863 317 276 C317 359.82 317 443.64 317 530 C226.91 530 136.82 530 44 530 C44.21785156 495.35128906 44.43570313 460.70257813 44.66015625 425.00390625 C44.74228479 403.06048732 44.8182317 381.1173088 44.86523438 359.17382812 C44.88859183 348.37826522 44.91311534 337.58270589 44.94047216 326.78715231 C44.94417929 325.32301802 44.94784964 323.85888362 44.95148274 322.39474914 C45.00959854 299.09691322 45.14851696 275.80043142 45.33014917 252.50325789 C45.51655828 228.53795531 45.62015741 204.5736632 45.62113865 180.60760216 C45.62131579 177.21440846 45.62242912 173.82121566 45.62411308 170.42802238 C45.62441551 169.76026313 45.62471793 169.09250387 45.62502952 168.40450948 C45.63272239 157.04165414 45.74171963 145.68173825 45.87481623 134.31971829 C45.98632495 124.18960749 46.00457475 114.06192773 45.95136464 103.93135548 C45.92340448 98.09465856 45.93474717 92.26547374 46.05751228 86.42983627 C47.36084425 59.37442957 47.36084425 59.37442957 35.86405594 35.99473194 C31.26991963 31.22287342 26.17778584 27.16302387 20.8621062 23.23009002 C17.58654008 20.67784115 14.98989916 17.91737779 12.38459641 14.70124155 C9.72583124 11.43443993 6.60818346 8.60400692 3.56835938 5.6953125 C2.34320509 4.49904535 1.16677125 3.25327689 0 2 C0 1.34 0 0.68 0 0 Z " fill="#F9F9F9" transform="translate(358,27)"/>
<path d="M0 0 C104.61 0 209.22 0 317 0 C317 35.97 317 71.94 317 109 C290.6 109 264.2 109 237 109 C237 247.93 237 386.86 237 530 C200.7 530 164.4 530 127 530 C127 391.07 127 252.14 127 109 C99.94 109 72.88 109 45 109 C45.3125 78.8125 45.3125 78.8125 45.51293945 69.36254883 C46.15857652 53.90490958 46.15857652 53.90490958 39.61270142 40.58595276 C36.88495313 38.14227287 34.01289774 36.08482971 31 34 C29.02050781 31.91479492 29.02050781 31.91479492 27.46484375 29.9609375 C24.50287025 26.47895076 21.31392379 23.25232287 18.06640625 20.0390625 C17.53904877 19.51721375 17.01169128 18.99536499 16.46835327 18.45770264 C14.27253903 16.2896499 12.07302026 14.125435 9.86938477 11.96533203 C8.24325081 10.36921101 6.62324105 8.76707677 5.00390625 7.1640625 C4.50089493 6.6745108 3.99788361 6.18495911 3.47962952 5.68057251 C2.28138007 4.49116463 1.13516637 3.24975604 0 2 C0 1.34 0 0.68 0 0 Z " fill="#FEFEFE" transform="translate(1768,27)"/>
<path d="M0 0 C104.61 0 209.22 0 317 0 C317 35.97 317 71.94 317 109 C290.6 109 264.2 109 237 109 C237 247.93 237 386.86 237 530 C200.7 530 164.4 530 127 530 C127 391.07 127 252.14 127 109 C127.33 109 127.66 109 128 109 C128 247.27 128 385.54 128 528 C163.31 528 198.62 528 235 528 C235 389.4 235 250.8 235 108 C261.73 108 288.46 108 316 108 C316 72.69 316 37.38 316 1 C161.065 1.495 161.065 1.495 3 2 C7.29 6.29 11.58 10.58 16 15 C15.67 15.66 15.34 16.32 15 17 C12.49195282 14.54976242 9.9949924 12.08852402 7.5 9.625 C6.78457031 8.92632812 6.06914063 8.22765625 5.33203125 7.5078125 C4.65527344 6.8375 3.97851562 6.1671875 3.28125 5.4765625 C2.65283203 4.85861816 2.02441406 4.24067383 1.37695312 3.60400391 C0 2 0 2 0 0 Z " fill="#5C5C5C" transform="translate(1768,27)"/>
<path d="M0 0 C34.11265779 -0.8975339 68.22232338 -1.58226525 102.34421194 -1.99154785 C106.39477702 -2.04031103 110.445319 -2.09079098 114.49584961 -2.14233398 C115.30205734 -2.15256409 116.10826506 -2.1627942 116.93890332 -2.17333431 C129.90423584 -2.34192537 142.86265421 -2.6487302 155.82391734 -3.00895905 C169.17702723 -3.37691346 182.5265833 -3.59094458 195.88455194 -3.6694513 C203.36890264 -3.7176631 210.83887657 -3.83194621 218.31804085 -4.12347221 C269.03191211 -6.04399972 269.03191211 -6.04399972 288.27233285 11.2899515 C296.40300896 19.13296776 303.66734738 27.72114527 310.3456201 36.82351059 C312.0343149 39.17162484 312.0343149 39.17162484 314.65777135 41.48629445 C318.46192322 46.07416984 317.67809849 51.75253521 317.61523914 57.42008018 C317.62100836 58.68990677 317.62677759 59.95973335 317.63272163 61.26803952 C317.64807047 64.80165854 317.63219002 68.33455863 317.61133096 71.8681241 C317.59416451 75.70879791 317.60601301 79.54939856 317.61421841 83.39008677 C317.62459192 90.12415364 317.61636034 96.85799977 317.59602737 103.59204102 C317.56587694 113.60529786 317.56434603 123.61841524 317.56873732 133.63170919 C317.57531031 150.47482518 317.55858659 167.31784317 317.52865028 184.16093063 C317.49907945 200.84109354 317.47982345 217.52121564 317.47438622 234.20140457 C317.47404252 235.23797952 317.47369882 236.27455448 317.47334471 237.34254079 C317.47165307 242.6066406 317.47014614 247.87074044 317.46871033 253.13484032 C317.45820432 290.43415962 317.42450653 327.73342559 317.37719727 365.03271484 C317.33128593 401.27164425 317.29586256 437.51055906 317.2746582 473.74951172 C317.27400057 474.86627638 317.27334294 475.98304105 317.27266538 477.13364707 C317.26607286 488.34851238 317.25969378 499.56337781 317.25347109 510.77824334 C317.24078954 533.62483757 317.22668328 556.47143084 317.2117157 579.31802368 C317.21102925 580.36850566 317.2103428 581.41898763 317.20963555 582.50130239 C317.16362125 652.66755711 317.08439397 722.83378225 317 793 C313.125 791.25 313.125 791.25 312 789 C312.66 789 313.32 789 314 789 C314.34288546 718.35185945 314.66086201 647.70361887 314.84686279 577.05487061 C314.84962393 576.00878702 314.85238508 574.96270343 314.85522989 573.88492033 C314.91509191 551.14918966 314.97049499 528.41345016 315.02130659 505.67769749 C315.04625272 494.52764273 315.07218388 483.37759036 315.09863281 472.22753906 C315.10124799 471.11799128 315.10386317 470.0084435 315.1065576 468.86527305 C315.19174282 432.91938532 315.34193674 396.97412751 315.52594442 361.0286212 C315.71473616 324.08133643 315.83774093 287.13440007 315.8782998 250.18664111 C315.88406266 244.96474584 315.89057539 239.74285174 315.89754486 234.52095795 C315.89889332 233.49324245 315.90024178 232.46552695 315.9016311 231.40666856 C315.92524047 214.88139841 316.01793115 198.35720748 316.13664068 181.83237697 C316.25458486 165.20793116 316.29931115 148.58455218 316.27002755 131.95970288 C316.25484612 122.08875538 316.29507016 112.22172059 316.41595086 102.3514819 C316.49129421 95.74649708 316.49304587 89.14405547 316.43663627 82.53889077 C316.40659758 78.78055609 316.40695129 75.02957849 316.49766365 71.27205339 C316.80676849 57.68637792 316.78172554 46.5492939 307.01907293 36.16992061 C303.61154323 32.94491368 300.07055597 29.95254485 296.40249977 27.02937898 C293.42200468 24.51177038 290.94226191 21.74110355 288.45416768 18.74575241 C286.24137271 16.08925536 283.82326017 13.69120467 281.375 11.25 C280.02535156 9.89648438 280.02535156 9.89648438 278.6484375 8.515625 C277.77445313 7.68546875 276.90046875 6.8553125 276 6 C275.34497151 5.29803623 274.68994303 4.59607246 274.01506519 3.87283707 C269.48620629 1.05969232 265.3421473 1.46036416 260.11051941 1.51898193 C258.9996046 1.51556423 257.88868978 1.51214653 256.74411088 1.50862527 C253.01428638 1.50202635 249.28517835 1.52405684 245.55541992 1.54589844 C242.88474911 1.54702648 240.21412245 1.54657013 237.54345703 1.54412842 C231.78998051 1.54203145 226.03668549 1.55457672 220.28325462 1.57707977 C211.9648009 1.60959406 203.64643491 1.62000619 195.32792453 1.62503174 C181.83160371 1.6337853 168.33537963 1.66040251 154.83911133 1.69824219 C141.72909021 1.73496071 128.61909537 1.76327324 115.5090332 1.78027344 C114.70087102 1.78132433 113.89270883 1.78237523 113.06005689 1.78345796 C109.00572692 1.78867813 104.95139676 1.79373296 100.89706647 1.79870558 C67.26464084 1.84016951 33.63233228 1.91061957 0 2 C0 1.34 0 0.68 0 0 Z " fill="#4F4F4F" transform="translate(2412,27)"/>
<path d="M0 0 C3.96104843 0.99026211 5.36693423 1.81127398 8.460495 4.27877808 C9.7918503 5.33902238 9.7918503 5.33902238 11.15010166 6.42068577 C12.11594653 7.20595614 13.0817914 7.99122652 14.0769043 8.80029297 C15.09973228 9.62947959 16.12256025 10.45866621 17.17638302 11.3129797 C30.74258073 22.38417361 43.81329014 34.01061498 56.6875 45.875 C57.3086511 46.44542448 57.9298022 47.01584895 58.56977606 47.60355902 C89.89094709 76.42031747 114.43488325 102.67119339 116.54988021 146.77490282 C116.89461104 155.89018639 116.58500684 164.96056128 116.0625 174.0625 C116.02409359 174.7527637 115.98568717 175.4430274 115.94611692 176.15420818 C114.9378892 193.8969288 112.98923931 211.47841047 110 229 C130.45107477 216.21712982 155.84201468 198.25600105 162.87857056 173.96736908 C166.88752746 156.24208143 166.5749548 137.8767623 166.25 119.8125 C166.22589156 117.32135029 166.20180292 114.83020039 166.17773438 112.33905029 C166.09378749 106.32098419 165.88511406 100.3191465 165.56902313 94.30887032 C165.45196029 92.06841961 165.3529844 89.82693544 165.27393341 87.5848217 C164.69899712 73.7561838 162.31262028 65.18288412 152.13699722 55.45322895 C150.77451655 54.21663348 149.39996823 52.99318469 148.01284027 51.78430176 C144.83809069 48.97001424 141.92170892 45.91386143 138.96875 42.87109375 C136.81952733 40.71946569 134.65907209 38.57923934 132.5 36.4375 C131.36824614 35.31079135 130.23673564 34.18383821 129.10546875 33.05664062 C126.40640868 30.36830112 123.70419712 27.68317166 121 25 C124 25 124 25 125.56646729 26.19897461 C126.12493347 26.76108643 126.68339966 27.32319824 127.25878906 27.90234375 C127.89665344 28.53720703 128.53451782 29.17207031 129.19171143 29.82617188 C129.87610291 30.52291016 130.56049438 31.21964844 131.265625 31.9375 C131.97724792 32.65099609 132.68887085 33.36449219 133.42205811 34.09960938 C134.9318556 35.61614169 136.43804481 37.13627339 137.94091797 38.65966797 C140.21997184 40.96956545 142.50922555 43.26891772 144.80078125 45.56640625 C146.26884771 47.04365639 147.73631426 48.521503 149.203125 50 C149.87941956 50.68054443 150.55571411 51.36108887 151.25250244 52.06225586 C151.90297546 52.72233643 152.55344849 53.38241699 153.22363281 54.0625 C153.78528137 54.63097656 154.34692993 55.19945312 154.92559814 55.78515625 C155.61015076 56.51605469 156.29470337 57.24695313 157 58 C157.58121644 58.53927093 158.16243288 59.07854185 158.76126194 59.63415432 C163.39050637 64.25529757 164.81463403 67.56682443 164.95980835 74.08872986 C164.94091049 75.61404076 164.94091049 75.61404076 164.92163086 77.17016602 C164.94243965 78.80828247 164.94243965 78.80828247 164.96366882 80.47949219 C164.99943341 84.07173588 164.9840833 87.66156663 164.96484375 91.25390625 C164.97210286 93.75919711 164.98129217 96.26448305 164.99232483 98.76976013 C165.00713614 104.01267849 164.99681385 109.2549742 164.9675293 114.49780273 C164.93425962 120.54585777 164.9554385 126.59195318 165.00423139 132.63985878 C165.0494928 138.47705011 165.04972889 144.3134907 165.0315876 150.1508007 C165.02876963 152.62630753 165.03807529 155.10185929 165.05979729 157.57727242 C165.08487791 161.03933111 165.05869675 164.49738303 165.01928711 167.95922852 C165.037052 168.97812668 165.05481689 169.99702484 165.07312012 171.04679871 C164.98377565 175.0620368 164.91529361 177.87050421 162.33036041 181.06037807 C160.29550654 182.84100986 158.19489036 184.4231876 156 186 C154.28013538 187.65170846 152.57826299 189.32250132 150.90087891 191.01733398 C149.98698395 191.93775986 149.07308899 192.85818573 148.13150024 193.8065033 C147.65787678 194.28586775 147.18425331 194.7652322 146.69627762 195.25912285 C145.19409618 196.77894125 143.68818666 198.2949771 142.1812439 199.81007385 C137.90374504 204.11183541 133.63220614 208.41948148 129.36474609 212.73120117 C126.74024616 215.38240431 124.11095809 218.02877893 121.47861862 220.67219734 C120.47914922 221.67788178 119.48158226 222.68546056 118.48595047 223.69494438 C117.10274895 225.09725558 115.71291648 226.49301699 114.32275391 227.88842773 C113.13983261 229.08253517 113.13983261 229.08253517 111.93301392 230.30076599 C110 232 110 232 108 232 C108.13606911 231.1774749 108.13606911 231.1774749 108.27488708 230.33833313 C111.20205946 212.30542316 113.01225222 194.23299293 114 176 C114.03908651 175.30153395 114.07817302 174.60306789 114.11844397 173.8834362 C116.10223538 137.25619965 112.10752503 107.58628087 87.24043655 79.33067322 C77.09372729 68.02328589 66.27220105 57.49450501 55.0625 47.25 C54.13412952 46.39909035 54.13412952 46.39909035 53.18700409 45.5309906 C28.77710485 21.38209185 28.77710485 21.38209185 1 2 C1 168.65 1 335.3 1 507 C7.29039224 501.53990349 7.29039224 501.53990349 13.26953125 495.828125 C14.37107544 494.72162598 14.37107544 494.72162598 15.49487305 493.59277344 C16.25968994 492.8196582 17.02450684 492.04654297 17.8125 491.25 C19.03223511 490.02458496 19.03223511 490.02458496 20.27661133 488.77441406 C22.85353297 486.18537329 25.42717625 483.59311263 28 481 C31.39287153 477.58037281 34.78914657 474.16417851 38.1875 470.75 C38.95231689 469.97688477 39.71713379 469.20376953 40.50512695 468.40722656 C41.23948975 467.66956055 41.97385254 466.93189453 42.73046875 466.171875 C43.36364014 465.5334668 43.99681152 464.89505859 44.64916992 464.23730469 C46.66536753 462.31847252 48.72137508 460.49344614 50.82568359 458.67332458 C54.72734541 455.27931744 58.41403014 451.72141661 62.05859375 448.05493164 C62.71325119 447.40042023 63.36790863 446.74590881 64.04240417 446.07156372 C66.17648567 443.93679311 68.30701665 441.79851725 70.4375 439.66015625 C71.92800328 438.16778522 73.41872948 436.6756368 74.90966797 435.18370056 C78.81132554 431.27824587 82.7099692 427.36979621 86.60797119 423.46069336 C90.59488776 419.46350202 94.58467736 415.46918061 98.57421875 411.47460938 C106.38561077 403.65252958 114.19381853 395.82727952 122 388 C122.66 388.33 123.32 388.66 124 389 C114.49273858 398.53047888 104.98274287 408.05822007 95.46929169 417.58252048 C91.05143369 422.00558677 86.63450652 426.42957416 82.21972656 430.85571289 C77.9555241 435.1308174 73.68885068 439.40344163 69.42048645 443.67439079 C67.79621488 445.30050345 66.17282056 446.92749288 64.55033875 448.55539131 C62.26963218 450.84340547 59.98576545 453.12822141 57.70117188 455.41235352 C57.03797943 456.07914124 56.37478699 456.74592896 55.6914978 457.43292236 C51.85363661 461.26245749 47.89600066 464.88709019 43.79335403 468.43095493 C41.58962383 470.35904717 39.50948555 472.38399916 37.45166016 474.46655273 C36.65788971 475.2668541 35.86411926 476.06715546 35.04629517 476.89170837 C34.21890839 477.73053055 33.39152161 478.56935272 32.5390625 479.43359375 C30.7514316 481.23385258 28.9636674 483.03397904 27.17578125 484.83398438 C24.38238196 487.65234679 21.59043251 490.47212388 18.80126953 493.29467773 C16.0931722 496.0327915 13.37904261 498.76480702 10.6640625 501.49609375 C9.82453033 502.34908554 8.98499817 503.20207733 8.12002563 504.08091736 C7.34516815 504.85915359 6.57031067 505.63738983 5.77197266 506.43920898 C5.08994781 507.12869125 4.40792297 507.81817352 3.70523071 508.52854919 C2 510 2 510 0 510 C0 341.7 0 173.4 0 0 Z " fill="#646464" transform="translate(74,317)"/>
<path d="M0 0 C0.66 0 1.32 0 2 0 C1.96224533 0.96733092 1.92449067 1.93466184 1.88559192 2.93130583 C-0.36310926 60.79515861 -2.02437682 118.65746729 -2.97967732 176.55690106 C-3.09556243 183.57178415 -3.21668763 190.58657238 -3.34057617 197.60131836 C-3.35892846 198.64804149 -3.35892846 198.64804149 -3.3776515 199.71591054 C-3.77226066 222.08364389 -4.50806162 244.42318371 -5.43392683 266.77471366 C-6.41624989 290.53636496 -6.98223054 314.27940527 -7.14832491 338.06102139 C-7.24989208 350.98323536 -7.5315267 363.84339301 -8.28685188 376.74508476 C-8.47829136 380.49024076 -8.66441482 384.23562584 -8.84904791 387.98112302 C-8.97589183 390.23703745 -9.12727621 392.49180772 -9.31151467 394.74376143 C-11.63035315 423.17184489 -3.19758303 447.30514398 3 476 C37.65 510.65 72.3 545.3 108 581 C108.33 468.47 108.66 355.94 109 240 C109.99 240 110.98 240 112 240 C111.67 353.52 111.34 467.04 111 584 C73.39360461 574.59840115 29.80530799 526.9082709 10.1811908 495.54564889 C-12.75621359 457.16395517 -9.60613236 405.4641115 -9.5703125 362.3046875 C-9.57025896 361.00225086 -9.57020542 359.69981422 -9.57015026 358.3579098 C-9.54464148 325.89863845 -8.59855704 293.49293711 -7.2521511 261.06523159 C-6.37908353 240.03674194 -5.76767827 219.01697772 -5.39550781 197.97363281 C-5.38306009 197.27490992 -5.37061238 196.57618702 -5.35778745 195.8562907 C-5.23296036 188.83537849 -5.11273804 181.8143936 -4.99587857 174.7933445 C-4.02526883 116.50361513 -2.29233565 58.25260335 0 0 Z " fill="#6F6F6F" transform="translate(2455,72)"/>
<path d="M0 0 C34.51494939 -0.1602467 69.0298138 -0.28357999 103.54505488 -0.35745731 C107.62053199 -0.36621218 111.69600836 -0.37527244 115.77148438 -0.38452148 C116.58283311 -0.38635766 117.39418184 -0.38819383 118.2301169 -0.39008565 C131.36480811 -0.42053909 144.49928469 -0.47572779 157.63384861 -0.54006957 C171.11266176 -0.60554668 184.59136257 -0.6444149 198.07032824 -0.65861946 C206.38669267 -0.66822107 214.70245049 -0.69853783 223.01862818 -0.75541527 C228.72254347 -0.79243758 234.42614549 -0.80359622 240.13017219 -0.79450964 C243.4206699 -0.79002881 246.70988593 -0.80069576 250.00024414 -0.83443832 C253.57160516 -0.86926803 257.14037094 -0.86089517 260.71179199 -0.84178162 C262.2643448 -0.87236645 262.2643448 -0.87236645 263.84826231 -0.90356916 C270.40405285 -0.80872887 273.73522824 0.57684504 278.38075209 5.24488109 C278.9151039 5.82407033 279.44945571 6.40325957 280 7 C280.89920166 7.85650146 281.79840332 8.71300293 282.72485352 9.59545898 C283.51819092 10.38766846 284.31152832 11.17987793 285.12890625 11.99609375 C286.01900391 12.88490234 286.90910156 13.77371094 287.82617188 14.68945312 C288.72916016 15.59630859 289.63214844 16.50316406 290.5625 17.4375 C291.9227832 18.79198242 291.9227832 18.79198242 293.31054688 20.17382812 C297.77766869 24.64742873 302.16281278 29.1251677 306.17454958 34.0158782 C307.91514874 36.04758558 307.91514874 36.04758558 310.04309797 37.4425149 C314.0922205 40.48838011 315.79068811 42.88236925 316.73426914 47.92066479 C317.11973175 53.08124457 317.02843881 58.24189382 316.96203613 63.41247559 C316.96552565 65.42404183 316.97253198 67.43560453 316.98274946 69.44714785 C317.00063578 74.97070436 316.96864304 80.49301963 316.92852497 86.01641798 C316.89398341 91.97406934 316.90566781 97.93165046 316.91174316 103.88937378 C316.9159384 114.21009577 316.89111386 124.53044201 316.84584045 134.85105896 C316.79848583 145.67388324 316.76770926 156.49654614 316.75901794 167.31947327 C316.75846803 167.99268788 316.75791811 168.6659025 316.75735153 169.35951756 C316.75464482 172.77850758 316.75223377 176.19749773 316.74993652 179.61648804 C316.73313823 203.82614087 316.67925356 228.03558302 316.60351562 252.24511719 C316.53002744 275.76268392 316.47336485 299.28019299 316.43945312 322.79785156 C316.43787481 323.88544001 316.43787481 323.88544001 316.43626461 324.99499994 C316.42571635 332.27641492 316.41550985 339.55783034 316.40555374 346.83924615 C316.38526465 361.67200865 316.36269463 376.50476739 316.33874512 391.33752441 C316.33709764 392.36047836 316.33709764 392.36047836 316.33541688 393.40409804 C316.26182549 438.93617213 316.12993709 484.46804426 316 530 C280.03 530 244.06 530 207 530 C207.64001953 510.06658203 207.64001953 510.06658203 208.29296875 489.73046875 C208.46744756 481.22151224 208.63061354 472.71470727 208.74414062 464.20507812 C208.925735 450.74606568 209.14962963 437.2985962 209.67114258 423.84790039 C210.16272822 410.89187459 210.45164313 397.94638793 210.41796875 384.98046875 C210.41525892 383.93708013 210.41254909 382.89369151 210.40975714 381.81868505 C210.23850042 356.62418277 208.75117276 335.55696925 190.39143372 316.92048645 C182.0822906 308.9000967 172.88555128 301.96282169 163 296 C173.46889148 296 185.88366049 309.47534199 192.93417358 316.31674194 C213.9227537 337.77055434 212.3169149 364.83494705 212.04699206 393.1354959 C211.89929349 403.9810704 211.4954162 414.81200378 211.0251205 425.6477201 C210.45889378 438.93220717 210.23937642 452.22278245 209.99570656 465.51635551 C209.60488757 486.35950463 208.76766057 507.15943725 208 528 C243.31 528 278.62 528 315 528 C315.47627426 459.45809033 315.47627426 459.45809033 315.77256775 390.91539001 C315.77460944 390.23793821 315.77665113 389.5604864 315.77875469 388.86250575 C315.82295107 374.13588246 315.86156965 359.40924948 315.89445097 344.68259669 C315.91061235 337.45953782 315.92800492 330.23648214 315.94604492 323.01342773 C315.94870612 321.93531767 315.94870612 321.93531767 315.95142108 320.8354276 C316.00939307 297.58312482 316.14849294 274.3321772 316.33014917 251.08053924 C316.51655973 227.16505473 316.62015741 203.25058281 316.62113865 179.33433826 C316.62131579 175.94817186 316.62242912 172.56200635 316.62411308 169.17584038 C316.62441551 168.50946427 316.62471793 167.84308816 316.62502952 167.15651884 C316.63272232 155.81731208 316.74171707 144.48125241 316.87481623 133.14281373 C316.98632694 123.03372636 317.00457392 112.92707506 316.95136464 102.81752528 C316.92340506 96.99297397 316.9347432 91.17595042 317.05751228 85.35246086 C318.35480904 58.33932186 318.35480904 58.33932186 306.86405594 35.00076021 C302.2670217 30.22629687 297.1702721 26.16552106 291.8573609 22.22253847 C287.02676238 18.46515834 283.45191889 13.95841978 279.82863903 9.07116127 C275.58767238 4.10074267 272.11011956 1.88241578 265.68320656 1.10883713 C258.74874141 0.63331446 251.81948923 0.76216638 244.87426758 0.86474609 C242.20262542 0.86756902 239.53125829 0.86641912 236.85964966 0.86032104 C231.12224741 0.85509613 225.38598885 0.88627029 219.64887428 0.94269943 C211.35434304 1.02422939 203.06036061 1.05003979 194.76547214 1.06257935 C181.30549338 1.08442557 167.84612322 1.15086451 154.38647461 1.24560547 C141.31749501 1.33750047 128.24868114 1.40823288 115.17944336 1.45068359 C114.37285752 1.45331083 113.56627167 1.45593806 112.73524383 1.45864491 C108.68853854 1.47169599 104.64183208 1.4843329 100.59512484 1.49676394 C67.06297534 1.60030619 33.53156248 1.7763268 0 2 C0 1.34 0 0.68 0 0 Z " fill="#606060" transform="translate(1454,27)"/>
<path d="M0 0 C0.33 0 0.66 0 1 0 C1 159.06 1 318.12 1 482 C36.31 482 71.62 482 108 482 C108 401.48 108 320.96 108 238 C108.66 238 109.32 238 110 238 C110.91804233 240.754127 111.12056246 242.33203 111.10743046 245.16416454 C111.10593811 246.01660281 111.10444576 246.86904108 111.10290819 247.74731082 C111.0961044 248.68407273 111.08930061 249.62083464 111.08229065 250.58598328 C111.07906152 251.58084977 111.07583239 252.57571627 111.07250541 253.60073024 C111.06039759 256.94959742 111.04103149 260.29838392 111.02172852 263.6472168 C111.0115892 266.04171573 111.00189515 268.43621658 110.99261475 270.83071899 C110.97159852 275.99376323 110.94747158 281.15678308 110.92053413 286.31979942 C110.8815923 293.78468382 110.84823128 301.24958492 110.81623887 308.71450195 C110.76418335 320.82539419 110.70760504 332.93626092 110.64819336 345.04711914 C110.59048498 356.81273404 110.53491152 368.57835585 110.48217773 380.34399414 C110.47889223 381.07644338 110.47560673 381.80889263 110.47222167 382.5635373 C110.44366178 388.93464241 110.41526384 395.30574823 110.38688183 401.67685413 C110.26442718 429.11793602 110.13133553 456.55895586 110 484 C73.7 484 37.4 484 0 484 C0 324.28 0 164.56 0 0 Z " fill="#606060" transform="translate(2141,73)"/>
<path d="M0 0 C35.97 0 71.94 0 109 0 C109 174.9 109 349.8 109 530 C73.03 530 37.06 530 0 530 C0 529.67 0 529.34 0 529 C35.64 529 71.28 529 108 529 C108 354.76 108 180.52 108 1 C72.69 1 37.38 1 1 1 C1 67.99 1 134.98 1 204 C0.01 204 -0.98 204 -2 204 C-2.62841797 202.4840625 -2.62841797 202.4840625 -3.26953125 200.9375 C-4.8795983 197.18413129 -6.73783353 193.58661415 -8.6875 190 C-9.39981723 188.67712514 -10.11205456 187.35420726 -10.82421875 186.03125 C-11.18563965 185.36222656 -11.54706055 184.69320312 -11.91943359 184.00390625 C-13.62440802 180.84203772 -15.31177918 177.6708357 -17 174.5 C-19.03067359 170.68898931 -21.06380367 166.87935437 -23.10546875 163.07421875 C-25.08196385 159.38893164 -27.04202395 155.69515905 -29 152 C-29.54398438 150.99066406 -30.08796875 149.98132813 -30.6484375 148.94140625 C-31.11507812 148.05324219 -31.58171875 147.16507813 -32.0625 146.25 C-32.66771484 145.11304688 -32.66771484 145.11304688 -33.28515625 143.953125 C-34 142 -34 142 -33 139 C-32.29206299 140.34070557 -32.29206299 140.34070557 -31.56982422 141.70849609 C-29.7404707 145.17226771 -27.90970804 148.63529314 -26.07861328 152.09814453 C-25.3009118 153.56930965 -24.52354452 155.0406515 -23.74658203 156.51220703 C-16.2449272 170.71914181 -8.61731451 184.85355877 -1 199 C-0.67 133.33 -0.34 67.66 0 0 Z " fill="#4D4D4D" transform="translate(949,27)"/>
<path d="M0 0 C0.99 0.495 0.99 0.495 2 1 C1.52167725 1.47308594 1.04335449 1.94617188 0.55053711 2.43359375 C-1.6565534 4.61964406 -3.85953633 6.80979129 -6.0625 9 C-6.81466797 9.74378906 -7.56683594 10.48757812 -8.34179688 11.25390625 C-11.73301947 14.63044823 -15.05890764 18.0066683 -18.15625 21.65625 C-23.86441724 28.29177841 -30.2319032 34.3356545 -36.4375 40.5 C-37.75479059 41.81226585 -39.07184986 43.12476395 -40.38867188 44.4375 C-43.5897861 47.62768506 -46.79401865 50.81470651 -50 54 C-45.83552483 58.97309568 -41.49440199 63.62936384 -36.87890625 68.18359375 C-36.21592026 68.84279312 -35.55293427 69.50199249 -34.86985779 70.1811676 C-32.06475934 72.97009346 -29.25370319 75.7529851 -26.44311523 78.53637695 C-24.37792822 80.58332833 -22.31586679 82.63339306 -20.25390625 84.68359375 C-19.3192025 85.60584999 -19.3192025 85.60584999 -18.36561584 86.54673767 C-14.71913635 90.17316695 -11.26786093 93.88874204 -7.98970795 97.85327148 C-6.07575765 100.05886286 -6.07575765 100.05886286 -3.71471596 101.65278435 C0.48853644 104.88842705 3.08528241 107.86866063 3.81607342 113.18506145 C4.22901223 118.58454364 4.11416527 123.98107037 4.02172852 129.39086914 C4.01918776 131.47098683 4.02061894 133.55111258 4.02571106 135.63122559 C4.02828786 141.2613905 3.97546709 146.88982123 3.91254544 152.51958394 C3.8561903 158.40916038 3.85098954 164.29877891 3.84031677 170.18858337 C3.81237091 181.334071 3.73855257 192.4787618 3.64817137 203.62389892 C3.52865478 218.6896199 3.48016203 233.75555959 3.42765141 248.82163525 C3.34308621 272.5483534 3.16377123 296.27339024 3 320 C-33.3 320 -69.6 320 -107 320 C-107.06058594 306.24699219 -107.12117188 292.49398438 -107.18359375 278.32421875 C-107.22406835 269.63346053 -107.26479088 260.94270465 -107.30664062 252.25195312 C-107.37308182 238.44475429 -107.43848422 224.63755591 -107.49731445 210.83032227 C-107.54015863 200.77604886 -107.58643723 190.7217982 -107.63687855 180.66755992 C-107.66347759 175.34158435 -107.68833065 170.01561329 -107.70907402 164.68961143 C-107.72863784 159.68037989 -107.75278091 154.67119165 -107.78049088 149.66199875 C-107.78986265 147.82011386 -107.79753748 145.97821946 -107.80341911 144.13632011 C-107.81167812 141.62811974 -107.82595426 139.12002451 -107.84178162 136.61186218 C-107.84275972 135.87742958 -107.84373783 135.14299698 -107.84474558 134.38630885 C-107.8697795 131.31653271 -108.02119665 128.93641005 -109 126 C-108.34 126 -107.68 126 -107 126 C-105.48940064 129.02119872 -105.86658715 132.14036975 -105.87974548 135.4536438 C-105.87889106 136.2312276 -105.87803663 137.0088114 -105.87715632 137.80995834 C-105.87550217 140.42948095 -105.88102184 143.04894027 -105.88647461 145.66845703 C-105.88675652 147.5406494 -105.88659867 149.41284188 -105.8860321 151.28503418 C-105.88574428 156.3798042 -105.89163852 161.47455086 -105.89860606 166.56931543 C-105.90484217 171.88913512 -105.9054436 177.2089553 -105.90663147 182.52877808 C-105.90974402 192.60810095 -105.91795639 202.68741303 -105.92798096 212.76673114 C-105.94123038 226.38304571 -105.94664262 239.99936322 -105.95248318 253.6156826 C-105.96189633 275.07712983 -105.98181576 296.53855426 -106 318 C-70.69 318 -35.38 318 1 318 C1.52178173 281.43952288 1.52178173 281.43952288 1.81640625 244.87890625 C1.8863344 229.95259143 1.98041587 215.02939794 2.23779297 200.10498047 C2.42519375 189.23152924 2.52622869 178.36113369 2.52715683 167.48601151 C2.53056983 161.73546074 2.57475406 155.9922677 2.72271729 150.24346924 C4.32395423 122.9599977 4.32395423 122.9599977 -6.82208729 99.2182951 C-11.21181784 94.65798451 -16.10137955 90.82630541 -21.22212315 87.12673664 C-25.06476964 84.18481462 -27.9940942 80.76041588 -31 77 C-32.30697252 75.61503002 -33.62739483 74.24234086 -34.97265625 72.89453125 C-35.64490234 72.22099609 -36.31714844 71.54746094 -37.00976562 70.85351562 C-37.68716797 70.17998047 -38.36457031 69.50644531 -39.0625 68.8125 C-39.74376953 68.12736328 -40.42503906 67.44222656 -41.12695312 66.73632812 C-44.93372181 62.93687311 -48.8068767 59.36889001 -53 56 C-51.6743093 53.05757612 -50.24007627 50.99739114 -47.9465332 48.73535156 C-47.32861404 48.12081116 -46.71069489 47.50627075 -46.0740509 46.87310791 C-45.40637192 46.21888855 -44.73869293 45.56466919 -44.05078125 44.890625 C-43.35993942 44.20498474 -42.6690976 43.51934448 -41.95732117 42.81292725 C-39.74707862 40.62047923 -37.53029008 38.4348109 -35.3125 36.25 C-33.11338697 34.0786688 -30.91580634 31.90584336 -28.72123718 29.72991943 C-27.35721767 28.37797544 -25.99053606 27.02870979 -24.62068176 25.68267822 C-20.76451392 21.86625332 -17.11462394 17.93642993 -13.58670044 13.81402588 C-11.04548008 10.90872669 -8.31293466 8.20557186 -5.5625 5.5 C-5.02173828 4.96375 -4.48097656 4.4275 -3.92382812 3.875 C-2.61823383 2.58095964 -1.30947004 1.29011826 0 0 Z " fill="#5E5E5E" transform="translate(2411,237)"/>
<path d="M0 0 C0.66 0 1.32 0 2 0 C3.62109375 1.64453125 3.62109375 1.64453125 5.4375 3.8125 C7.79403298 6.70578973 7.79403298 6.70578973 10.58654767 9.13414079 C12.82933946 12.09478801 12.40587458 15.32936065 12.36914349 18.89671612 C12.37260502 19.71397377 12.37606655 20.53123142 12.37963298 21.37325445 C12.38762826 24.13546608 12.37407008 26.89716215 12.36076355 29.65934753 C12.36207073 31.65009173 12.36469553 33.64083543 12.36853105 35.63157636 C12.37526514 41.12042241 12.36320325 46.6090941 12.34819686 52.09791791 C12.33528278 58.00998594 12.33962267 63.92204355 12.34190369 69.8341217 C12.34358214 80.75186035 12.33189438 91.66953523 12.31388104 102.58725778 C12.29738616 112.67029347 12.28769184 122.75331027 12.28463173 132.83635902 C12.28442551 133.50437195 12.28421929 134.17238488 12.28400682 134.86064063 C12.28299185 138.25301538 12.28208769 141.64539015 12.2812262 145.03776494 C12.27492168 169.07817066 12.25470048 193.11854661 12.22631836 217.15893555 C12.19877395 240.51668133 12.17751876 263.87441897 12.16479492 287.23217773 C12.16440034 287.95191811 12.16400576 288.67165848 12.16359923 289.41320916 C12.15964374 296.64100901 12.15581628 303.86880891 12.15208265 311.09660887 C12.14447361 325.82102358 12.13600985 340.54543775 12.12702942 355.26985168 C12.12661755 355.94688548 12.12620568 356.62391927 12.12578133 357.32146923 C12.09817023 402.54766108 12.04871437 447.77382498 12 493 C47.31 493 82.62 493 119 493 C119 400.6 119 308.2 119 213 C119.99 213.33 120.98 213.66 122 214 C121.83785997 214.56062456 121.67571994 215.12124913 121.50866657 215.69886231 C120.96776884 218.14580932 120.86926172 220.31329658 120.8613348 222.81820297 C120.85586036 223.79106774 120.85038591 224.76393251 120.84474558 225.76627803 C120.84376747 226.83241934 120.84278936 227.89856065 120.84178162 228.99700928 C120.83684364 230.13157098 120.83190566 231.26613268 120.82681805 232.43507504 C120.81141533 236.2506605 120.80307488 240.0662291 120.79467773 243.88183594 C120.78564969 246.61145907 120.7751349 249.34107599 120.76467896 252.07069397 C120.74292073 257.95451912 120.72477384 263.83834654 120.70907402 269.72219086 C120.68636945 278.22926006 120.65822743 286.73630443 120.62875474 295.24335256 C120.58108604 309.04519934 120.53781989 322.84705626 120.49731445 336.64892578 C120.45795586 350.05681143 120.41652876 363.46468804 120.37231445 376.87255859 C120.36959018 377.69890547 120.36686591 378.52525236 120.36405908 379.37664005 C120.35037954 383.52214536 120.33665928 387.66765054 120.32291877 391.81315565 C120.20896532 426.20875272 120.10296309 460.60436783 120 495 C84.03 495 48.06 495 11 495 C11.01683838 480.41562744 11.03367676 465.83125488 11.05102539 450.80493164 C11.08280269 419.61590789 11.10289666 388.42693622 11.09507751 357.23789978 C11.09491029 356.55823906 11.09474307 355.87857834 11.09457078 355.17832184 C11.09086967 340.40739737 11.08516805 325.6364743 11.07740569 310.86555142 C11.0736112 303.62187494 11.07025877 296.37819828 11.06713867 289.13452148 C11.06682066 288.4136893 11.06650265 287.69285711 11.066175 286.95018152 C11.05607485 263.58666188 11.07516418 240.22327692 11.10939364 216.85978371 C11.14441523 192.85036872 11.1499826 168.8411227 11.11849881 144.83169842 C11.11406551 141.44040078 11.10996885 138.0491028 11.10607719 134.65780449 C11.10530085 133.99034961 11.10452451 133.32289474 11.10372464 132.63521396 C11.09281449 122.55711399 11.10779048 112.47925959 11.13676643 102.40120125 C11.16952988 90.93446651 11.17229056 79.46823446 11.13534261 68.00150324 C11.11746406 62.14905607 11.11427689 56.29755832 11.15022469 50.44517326 C11.18281518 45.08712671 11.17397405 39.7308052 11.13215785 34.37283748 C11.1243476 32.43460092 11.13175166 30.49623089 11.15590347 28.55812908 C11.55912371 18.24506834 11.55912371 18.24506834 7.95683181 8.91336143 C5.58242082 6.46140132 5.58242082 6.46140132 3.0270223 4.57902521 C1 3 1 3 0 0 Z " fill="#9E9E9E" transform="translate(720,62)"/>
<path d="M0 0 C34.06125431 -0.96707574 68.11902411 -1.70421603 102.19101595 -2.14474384 C106.23771782 -2.19725657 110.28439286 -2.25161974 114.33105469 -2.30712891 C115.13647548 -2.31814594 115.94189628 -2.32916298 116.77172376 -2.34051387 C129.71623056 -2.52196334 142.65268693 -2.85229214 155.59245895 -3.24041744 C168.92856095 -3.63701197 182.26053313 -3.86723553 195.60228646 -3.95171678 C203.07606063 -4.00358951 210.53311845 -4.12623671 218.00085068 -4.44066238 C268.3029094 -6.49883691 268.3029094 -6.49883691 287.76969118 10.90509273 C316.35438254 37.27131723 316.35438254 37.27131723 317.24609566 47.94600964 C317.24425207 49.160011 317.24240849 50.37401236 317.24050903 51.62480164 C317.24307231 52.63932576 317.24307231 52.63932576 317.24568737 53.67434531 C317.24898705 55.94535747 317.23797089 58.21607552 317.22705078 60.48706055 C317.22648677 62.11309807 317.22680303 63.73913611 317.22793579 65.36517334 C317.2285107 69.78432067 317.21673408 74.2033599 317.20278788 78.62248206 C317.1903035 83.23894185 317.18911183 87.85540399 317.18673706 92.47187805 C317.18051554 101.21600443 317.16409564 109.96008092 317.14403808 118.70418531 C317.12169997 128.65810928 317.11069091 138.61203561 317.10064721 148.56597841 C317.07972999 169.04401347 317.04454097 189.5220036 317 210 C316.67 210 316.34 210 316 210 C316.00959496 209.16953659 316.01918991 208.33907318 316.02907562 207.48344421 C316.25768188 187.21575024 316.39673849 166.94913416 316.43784332 146.68016052 C316.45985049 136.87771318 316.51143877 127.07713591 316.63427734 117.27539062 C316.74135066 108.72548458 316.79128079 100.17741241 316.77444887 91.62682056 C316.76749301 87.10419582 316.78788122 82.58565103 316.87687683 78.06381226 C318.1423645 56.67955551 318.1423645 56.67955551 309.4932785 38.13575745 C306.81816475 35.6970413 304.02890691 33.58365828 301.03956223 31.54703712 C297.49113334 28.85550305 294.82438835 25.41412816 292 22 C290.51311415 20.43293003 289.01064608 18.88029871 287.484375 17.3515625 C286.70835937 16.57425781 285.93234375 15.79695313 285.1328125 14.99609375 C284.34648437 14.21363281 283.56015625 13.43117188 282.75 12.625 C281.94820312 11.81933594 281.14640625 11.01367188 280.3203125 10.18359375 C279.54945313 9.41402344 278.77859375 8.64445312 277.984375 7.8515625 C276.94361816 6.81249756 276.94361816 6.81249756 275.88183594 5.75244141 C272.67273018 2.7639929 270.70461482 1.74992645 266.39854908 1.75390434 C265.44857573 1.74992225 264.49860239 1.74594015 263.51984197 1.74183738 C262.47413351 1.74766307 261.42842504 1.75348875 260.35102844 1.75949097 C259.24182248 1.75778212 258.13261651 1.75607327 256.98979825 1.75431263 C253.25395774 1.75100493 249.51829481 1.7620426 245.7824707 1.77294922 C243.11210728 1.77351306 240.4417549 1.77328548 237.77139282 1.77206421 C232.01248125 1.77101454 226.25361493 1.77729965 220.49471474 1.78853989 C212.16827678 1.80478089 203.84186074 1.81000146 195.51540866 1.81251587 C182.00692344 1.81689517 168.49846235 1.83021066 154.98999023 1.84912109 C141.86629355 1.86747381 128.74260341 1.88163329 115.61889648 1.89013672 C114.40586504 1.89092489 114.40586504 1.89092489 113.16832791 1.89172898 C109.11145654 1.89433902 105.05458513 1.89686645 100.99771369 1.89935279 C67.33179162 1.92009262 33.66589877 1.95532455 0 2 C0 1.34 0 0.68 0 0 Z " fill="#5A5A5A" transform="translate(2097,27)"/>
<path d="M0 0 C0.99 0.33 1.98 0.66 3 1 C2.83785997 1.56062456 2.67571994 2.12124913 2.50866657 2.69886231 C1.96776884 5.14580932 1.86926172 7.31329658 1.8613348 9.81820297 C1.85586036 10.79106774 1.85038591 11.76393251 1.84474558 12.76627803 C1.84376747 13.83241934 1.84278936 14.89856065 1.84178162 15.99700928 C1.83684364 17.13157098 1.83190566 18.26613268 1.82681805 19.43507504 C1.81141533 23.2506605 1.80307488 27.0662291 1.79467773 30.88183594 C1.78564969 33.61145907 1.7751349 36.34107599 1.76467896 39.07069397 C1.74292073 44.95451912 1.72477384 50.83834654 1.70907402 56.72219086 C1.68636945 65.22926006 1.65822743 73.73630443 1.62875474 82.24335256 C1.58108604 96.04519934 1.53781989 109.84705626 1.49731445 123.64892578 C1.45795586 137.05681143 1.41652876 150.46468804 1.37231445 163.87255859 C1.36959018 164.69890547 1.36686591 165.52525236 1.36405908 166.37664005 C1.35037954 170.52214536 1.33665928 174.66765054 1.32291877 178.81315565 C1.20896532 213.20875272 1.10296309 247.60436783 1 282 C-34.97 282 -70.94 282 -108 282 C-108 281.67 -108 281.34 -108 281 C-72.36 281 -36.72 281 0 281 C0 188.27 0 95.54 0 0 Z " fill="#4A4A4A" transform="translate(839,275)"/>
<path d="M0 0 C19.81009872 -0.30390006 39.61972356 -0.53302911 59.43167114 -0.67355824 C68.63118479 -0.74054847 77.82924895 -0.83184477 87.02783203 -0.98071289 C95.0469812 -1.11043123 103.06508072 -1.19418837 111.0852499 -1.22315043 C115.33121656 -1.24007848 119.57418099 -1.27974112 123.81918335 -1.37449074 C127.81914008 -1.46304377 131.81487385 -1.48989897 135.8157177 -1.47039986 C137.28001861 -1.47396369 138.74446698 -1.49966623 140.20791817 -1.54967117 C144.75882116 -1.69748591 148.71100511 -1.59030487 153 0 C156.67913872 3.96078972 158.74173839 8.07950568 161 13 C162.1280303 15.06811747 163.26677175 17.13047448 164.421875 19.18359375 C165.53505909 21.26619763 166.64434152 23.35089102 167.75 25.4375 C168.97342889 27.72814744 170.19739577 30.0185076 171.421875 32.30859375 C172.02451172 33.43765137 172.62714844 34.56670898 173.24804688 35.72998047 C175.80457564 40.50173998 178.40018266 45.25172856 181 50 C187.12219056 61.19815816 193.17030809 72.43575474 199.21337891 83.67675781 C201.57733609 88.07388615 203.94243942 92.47039594 206.30883789 96.86621094 C207.46923298 99.02254585 208.62859164 101.17943885 209.78686523 103.33691406 C212.76288641 108.87436529 215.76382398 114.39629253 218.8046875 119.8984375 C219.71915649 121.56108643 219.71915649 121.56108643 220.65209961 123.25732422 C221.82073419 125.37981903 222.99578833 127.49879497 224.17797852 129.61376953 C224.69545654 130.55591309 225.21293457 131.49805664 225.74609375 132.46875 C226.20685303 133.29826172 226.6676123 134.12777344 227.14233398 134.98242188 C227.42536377 135.64822266 227.70839355 136.31402344 228 137 C227.67 137.66 227.34 138.32 227 139 C220.75994426 128.39389887 214.97027936 117.55076448 209.19311523 106.68847656 C208.87356873 106.08864456 208.55402222 105.48881256 208.22479248 104.87080383 C207.34551771 103.21976632 206.46799117 101.5677981 205.59057617 99.91577148 C204.12619026 97.23132621 202.58087814 94.61683341 201 92 C199.69786805 89.567356 198.40649883 87.13090336 197.125 84.6875 C194.63300419 79.9628176 192.109762 75.33134619 189.10546875 70.90625 C187.80340852 68.66100126 186.86015575 66.30855138 185.85913086 63.91796875 C184.36001611 60.57126643 182.51480292 57.42583313 180.6875 54.25 C179.88234238 52.83360047 179.07765591 51.41693302 178.2734375 50 C177.88381836 49.31550781 177.49419922 48.63101563 177.09277344 47.92578125 C173.67805742 41.90806903 170.3989885 35.84828068 167.375 29.625 C162.59132371 20.23482061 157.22853773 11.14994103 152 2 C101.84 2 51.68 2 0 2 C0 1.34 0 0.68 0 0 Z " fill="#424242" transform="translate(687,27)"/>
<path d="M0 0 C18.15 0 36.3 0 55 0 C55 33.66 55 67.32 55 102 C51.67720313 100.33860156 50.05870817 99.31177457 47.52563477 96.82763672 C46.86458237 96.18915802 46.20352997 95.55067932 45.52244568 94.89285278 C44.81507767 94.20375824 44.10770966 93.5146637 43.37890625 92.8046875 C38.15729802 87.77513445 32.87080341 82.9997363 27.15856934 78.53329468 C1.17199728 58.08379006 1.17199728 58.08379006 -1.53564453 43.55273438 C-3.28042442 28.83980591 -1.37962602 14.8512683 0 0 Z M1 1 C0.773125 8.5075 0.54625 16.015 0.3125 23.75 C0.21235596 26.09448242 0.11221191 28.43896484 0.0090332 30.85449219 C-0.54161016 43.01306456 -0.54161016 43.01306456 4.62020874 53.57704163 C6.94832964 55.91781929 9.41059662 57.94808633 12 60 C13.30541745 61.30953741 14.59383125 62.63651434 15.85546875 63.98828125 C16.96356864 65.09893143 18.07414088 66.20712195 19.1875 67.3125 C19.73857422 67.86744141 20.28964844 68.42238281 20.85742188 68.99414062 C23.74974766 71.87976345 26.70398884 74.63596971 29.8046875 77.296875 C34.76885653 81.59087225 39.33443351 86.26334368 43.9375 90.9375 C45.63184327 92.65718872 47.32833277 94.37476647 49.02734375 96.08984375 C49.76718506 96.84128662 50.50702637 97.59272949 51.26928711 98.36694336 C52.72463042 100.11438151 52.72463042 100.11438151 54 100 C54 67.33 54 34.66 54 1 C36.51 1 19.02 1 1 1 Z " fill="#4E4E4E" transform="translate(2565,135)"/>
<path d="M0 0 C0.33 0 0.66 0 1 0 C1 66.99 1 133.98 1 203 C0.01 203 -0.98 203 -2 203 C-2.62841797 201.4840625 -2.62841797 201.4840625 -3.26953125 199.9375 C-4.8795983 196.18413129 -6.73783353 192.58661415 -8.6875 189 C-9.39981723 187.67712514 -10.11205456 186.35420726 -10.82421875 185.03125 C-11.18563965 184.36222656 -11.54706055 183.69320312 -11.91943359 183.00390625 C-13.62440802 179.84203772 -15.31177918 176.6708357 -17 173.5 C-19.03067359 169.68898931 -21.06380367 165.87935437 -23.10546875 162.07421875 C-25.08196385 158.38893164 -27.04202395 154.69515905 -29 151 C-29.54398438 149.99066406 -30.08796875 148.98132813 -30.6484375 147.94140625 C-31.11507812 147.05324219 -31.58171875 146.16507813 -32.0625 145.25 C-32.66771484 144.11304688 -32.66771484 144.11304688 -33.28515625 142.953125 C-34 141 -34 141 -33 138 C-32.29206299 139.34070557 -32.29206299 139.34070557 -31.56982422 140.70849609 C-29.7404707 144.17226771 -27.90970804 147.63529314 -26.07861328 151.09814453 C-25.3009118 152.56930965 -24.52354452 154.0406515 -23.74658203 155.51220703 C-16.2449272 169.71914181 -8.61731451 183.85355877 -1 198 C-0.67 132.66 -0.34 67.32 0 0 Z " fill="#A6A6A6" transform="translate(949,28)"/>
<path d="M0 0 C18.15 0 36.3 0 55 0 C55.16043524 20.59364533 55.16043524 20.59364533 55.1953125 29.35742188 C55.21924404 35.34251042 55.24758477 41.3273547 55.30175781 47.31225586 C55.34515089 52.13628507 55.36912342 56.96005243 55.37950897 61.7842617 C55.38691212 63.6267325 55.40136845 65.46918862 55.42292023 67.31154823 C55.45186776 69.88811071 55.4559597 72.46358485 55.45410156 75.0402832 C55.47567322 76.18827141 55.47567322 76.18827141 55.49768066 77.35945129 C55.45705348 82.54990898 55.45705348 82.54990898 52.97161865 84.9974823 C52.3209845 85.32831314 51.67035034 85.65914398 51 86 C51.32342377 85.502724 51.64684753 85.005448 51.98007202 84.49310303 C53.38575411 81.05706603 53.30822089 77.76558794 53.31884766 74.11035156 C53.33391609 72.92441658 53.33391609 72.92441658 53.34928894 71.71452332 C53.38012926 69.10656446 53.39715836 66.49870832 53.4140625 63.890625 C53.43277347 62.08029293 53.45234683 60.26996958 53.4727478 58.45965576 C53.52408249 53.69876245 53.56370108 48.93784086 53.60089111 44.17681885 C53.64796267 38.46233247 53.70956626 32.74798655 53.76873779 27.03361511 C53.85696637 18.35580006 53.92671901 9.67801216 54 1 C36.51 1 19.02 1 1 1 C0.9175 8.486875 0.835 15.97375 0.75 23.6875 C0.69295898 26.02287842 0.63591797 28.35825684 0.57714844 30.7644043 C0.38610848 43.23813066 0.38610848 43.23813066 6.01014709 53.96159363 C8.53669108 56.51527567 11.19350229 58.75324637 14 61 C15.31928134 62.25710762 16.6300174 63.5233527 17.92578125 64.8046875 C19.05061461 65.83259973 20.17946306 66.85613743 21.3125 67.875 C29.11164451 75.01779612 36.57057621 82.4757325 44 90 C46.475 89.01 46.475 89.01 49 88 C48.34 89.32 47.68 90.64 47 92 C43 92 43 92 41.38769531 90.82592773 C40.87303711 90.28395752 40.35837891 89.7419873 39.828125 89.18359375 C39.24546875 88.58353516 38.6628125 87.98347656 38.0625 87.36523438 C37.464375 86.72908203 36.86625 86.09292969 36.25 85.4375 C32.66713433 81.69213711 29.09940862 78.02318431 25.1640625 74.64453125 C20.24899484 70.41521783 15.69734507 65.84364481 11.125 61.25 C10.27164063 60.40050781 9.41828125 59.55101562 8.5390625 58.67578125 C7.724375 57.85980469 6.9096875 57.04382813 6.0703125 56.203125 C5.33570801 55.46739258 4.60110352 54.73166016 3.84423828 53.97363281 C0.7226788 50.63306002 -0.25012989 48.65026427 -0.22705078 44.16137695 C-0.22680908 43.16690552 -0.22656738 42.17243408 -0.22631836 41.14782715 C-0.21608643 40.105177 -0.20585449 39.06252686 -0.1953125 37.98828125 C-0.19329834 37.02805054 -0.19128418 36.06781982 -0.18920898 35.07849121 C-0.1787409 31.48977892 -0.15081834 27.90113469 -0.125 24.3125 C-0.08375 16.289375 -0.0425 8.26625 0 0 Z " fill="#4D4D4D" transform="translate(2250,135)"/>
<path d="M0 0 C34.74453747 -0.04573826 69.48906808 -0.08099926 104.23362913 -0.10213066 C108.33185957 -0.10463219 112.43008996 -0.10722082 116.52832031 -0.10986328 C117.34423352 -0.1103879 118.16014674 -0.11091252 119.00078459 -0.11145304 C132.22672253 -0.12016504 145.45264314 -0.13593937 158.67857079 -0.15430559 C172.2409882 -0.17298256 185.80339651 -0.18411205 199.36582625 -0.18817699 C207.74031297 -0.19092664 216.11475076 -0.19962341 224.48922242 -0.21583293 C230.22527052 -0.22637265 235.96129317 -0.2296075 241.69735025 -0.22700275 C245.0109725 -0.22571674 248.32449043 -0.22882204 251.63810158 -0.23841095 C255.22392254 -0.24828336 258.80952986 -0.2459972 262.39535522 -0.24050903 C263.45175843 -0.24633472 264.50816163 -0.2521604 265.59657705 -0.25816262 C266.55152614 -0.25418052 267.50647523 -0.25019842 268.49036217 -0.24609566 C269.73318681 -0.24723482 269.73318681 -0.24723482 271.00111902 -0.24839699 C273 0 273 0 275 2 C274.67 2.99 274.34 3.98 274 5 C273.39985739 4.26892038 273.39985739 4.26892038 272.78759068 3.52307147 C270.5072318 1.58014931 269.36564177 1.62674507 266.39854908 1.63085651 C264.97358906 1.6218968 264.97358906 1.6218968 263.51984197 1.61275607 C262.47413351 1.6214946 261.42842504 1.63023312 260.35102844 1.63923645 C259.24182248 1.63667318 258.13261651 1.6341099 256.98979825 1.63146895 C253.25387692 1.62650729 249.51835512 1.64306363 245.7824707 1.65942383 C243.11210211 1.66026959 240.44175838 1.65992823 237.77139282 1.65809631 C232.01245765 1.65652181 226.2536243 1.66594944 220.49471474 1.68280983 C212.16827353 1.70717135 203.84188165 1.71500217 195.51540866 1.7187738 C182.00690793 1.72534277 168.49846148 1.74531598 154.98999023 1.77368164 C141.86629508 1.80121071 128.74261467 1.82244992 115.61889648 1.83520508 C114.40586504 1.83638733 114.40586504 1.83638733 113.16832791 1.83759347 C109.11145659 1.84150853 105.05458517 1.84529967 100.99771369 1.84902918 C67.33176975 1.88013895 33.66589152 1.93298684 0 2 C0 1.34 0 0.68 0 0 Z " fill="#595959" transform="translate(2412,27)"/>
<path d="M0 0 C5.35568021 4.47292876 10.34379223 9.19719223 15.26953125 14.13671875 C16.03174484 14.89797562 16.79395844 15.65923248 17.57926941 16.44355774 C19.17801693 18.04162868 20.77551805 19.64094742 22.37182617 21.24145508 C24.81901877 23.69403311 27.27154057 26.14119151 29.72460938 28.58789062 C31.281571 30.14551254 32.83822266 31.70344435 34.39453125 33.26171875 C35.12783157 33.99299484 35.8611319 34.72427094 36.61665344 35.47770691 C37.63362556 36.49940727 37.63362556 36.49940727 38.67114258 37.54174805 C39.56546745 38.43726631 39.56546745 38.43726631 40.4778595 39.35087585 C44.01142494 43.17922684 44.24822526 45.54366439 44.24050903 50.62480164 C44.24221788 51.30115105 44.24392673 51.97750046 44.24568737 52.67434531 C44.24898705 54.94535747 44.23797089 57.21607552 44.22705078 59.48706055 C44.22648677 61.11309807 44.22680303 62.73913611 44.22793579 64.36517334 C44.2285107 68.78432067 44.21673408 73.2033599 44.20278788 77.62248206 C44.1903035 82.23894185 44.18911183 86.85540399 44.18673706 91.47187805 C44.18051554 100.21600443 44.16409564 108.96008092 44.14403808 117.70418531 C44.12169997 127.65810928 44.11069091 137.61203561 44.10064721 147.56597841 C44.07972999 168.04401347 44.04454097 188.5220036 44 209 C43.67 209 43.34 209 43 209 C43.00959496 208.16953659 43.01918991 207.33907318 43.02907562 206.48344421 C43.25768188 186.21575024 43.39673849 165.94913416 43.43784332 145.68016052 C43.45985049 135.87771318 43.51143877 126.07713591 43.63427734 116.27539062 C43.74135066 107.72548458 43.79128079 99.17741241 43.77444887 90.62682056 C43.76749301 86.10419582 43.78788122 81.58565103 43.87687683 77.06381226 C45.1423645 55.67955551 45.1423645 55.67955551 36.4932785 37.13575745 C33.81799808 34.69688936 31.02855676 32.58341431 28.03901768 30.54667854 C25.09281837 28.31186552 22.84027563 25.62423567 20.4864645 22.78935051 C18.51855704 20.42045693 16.36254464 18.28309133 14.16015625 16.1328125 C13.32548828 15.31039062 12.49082031 14.48796875 11.63085938 13.640625 C9.89294725 11.93839624 8.15331366 10.23792357 6.41210938 8.5390625 C5.58646484 7.724375 4.76082031 6.9096875 3.91015625 6.0703125 C3.15871338 5.33570801 2.40727051 4.60110352 1.63305664 3.84423828 C0 2 0 2 0 0 Z " fill="#161616" transform="translate(2370,28)"/>
<path d="M0 0 C0.66 0.33 1.32 0.66 2 1 C1.52167725 1.47308594 1.04335449 1.94617188 0.55053711 2.43359375 C-1.6565534 4.61964406 -3.85953633 6.80979129 -6.0625 9 C-6.81466797 9.74378906 -7.56683594 10.48757812 -8.34179688 11.25390625 C-11.73301947 14.63044823 -15.05890764 18.0066683 -18.15625 21.65625 C-23.86441724 28.29177841 -30.2319032 34.3356545 -36.4375 40.5 C-37.75479059 41.81226585 -39.07184986 43.12476395 -40.38867188 44.4375 C-43.5897861 47.62768506 -46.79401865 50.81470651 -50 54 C-45.83552483 58.97309568 -41.49440199 63.62936384 -36.87890625 68.18359375 C-35.88442726 69.17239281 -35.88442726 69.17239281 -34.86985779 70.1811676 C-32.06475934 72.97009346 -29.25370319 75.7529851 -26.44311523 78.53637695 C-24.37792822 80.58332833 -22.31586679 82.63339306 -20.25390625 84.68359375 C-19.3192025 85.60584999 -19.3192025 85.60584999 -18.36561584 86.54673767 C-14.57700477 90.31451702 -10.99617706 94.20706504 -7.5138855 98.26002502 C-5.62063767 100.43601776 -3.61954824 102.47904033 -1.5625 104.5 C-0.88316406 105.1703125 -0.20382813 105.840625 0.49609375 106.53125 C0.99238281 107.0159375 1.48867187 107.500625 2 108 C1.67 108.66 1.34 109.32 1 110 C-2.43553609 106.58942868 -5.86758565 103.1753981 -9.29663086 99.75830078 C-10.46042274 98.59949681 -11.62511549 97.44159678 -12.79077148 96.28466797 C-18.50425085 90.61285705 -24.16560306 84.96804785 -29.3918457 78.83740234 C-32.45327834 75.33955173 -35.7675908 72.08859906 -39.0625 68.8125 C-40.0844043 67.78479492 -40.0844043 67.78479492 -41.12695312 66.73632812 C-44.93372181 62.93687311 -48.8068767 59.36889001 -53 56 C-51.6743093 53.05757612 -50.24007627 50.99739114 -47.9465332 48.73535156 C-47.32861404 48.12081116 -46.71069489 47.50627075 -46.0740509 46.87310791 C-45.07253242 45.89177887 -45.07253242 45.89177887 -44.05078125 44.890625 C-43.35993942 44.20498474 -42.6690976 43.51934448 -41.95732117 42.81292725 C-39.74707862 40.62047923 -37.53029008 38.4348109 -35.3125 36.25 C-33.11338697 34.0786688 -30.91580634 31.90584336 -28.72123718 29.72991943 C-27.35721767 28.37797544 -25.99053606 27.02870979 -24.62068176 25.68267822 C-20.76451392 21.86625332 -17.11462394 17.93642993 -13.58670044 13.81402588 C-11.04548008 10.90872669 -8.31293466 8.20557186 -5.5625 5.5 C-5.02173828 4.96375 -4.48097656 4.4275 -3.92382812 3.875 C-2.61823383 2.58095964 -1.30947004 1.29011826 0 0 Z " fill="#212121" transform="translate(2411,237)"/>
<path d="M0 0 C0.33 0 0.66 0 1 0 C0.9969838 0.55852661 0.99396759 1.11705322 0.99085999 1.69250488 C0.9661971 7.53356603 0.99055833 13.37299779 1.04272461 19.21386719 C1.05582177 21.39026017 1.05663777 23.56676454 1.04467773 25.74316406 C1.02960116 28.8819623 1.05944961 32.01770173 1.09765625 35.15625 C1.08340103 36.12115356 1.06914581 37.08605713 1.05445862 38.0802002 C1.18862596 44.4151448 2.55019792 47.6566332 7.02833557 52.14633179 C8.00430946 53.06389755 8.00430946 53.06389755 9 54 C10.17372033 55.21178261 11.34489782 56.42603373 12.51342773 57.64282227 C13.73414455 58.87001382 14.95762543 60.09446094 16.18359375 61.31640625 C16.84279312 61.97656235 17.50199249 62.63671844 18.1811676 63.31687927 C19.56396835 64.70035506 20.94801076 66.08259083 22.33325195 67.46362305 C24.43230343 69.55731669 26.5259594 71.65629874 28.61914062 73.75585938 C29.97363786 75.10969571 31.32844531 76.46322175 32.68359375 77.81640625 C33.29843124 78.43326797 33.91326874 79.0501297 34.54673767 79.6856842 C38.33106229 83.45004248 42.23568548 87.02277309 46.28138733 90.50500488 C48.27257109 92.23710546 50.15343346 94.05246332 52 95.9375 C52.5775 96.52402344 53.155 97.11054688 53.75 97.71484375 C54.1625 98.13894531 54.575 98.56304687 55 99 C54.67 99.66 54.34 100.32 54 101 C53.15429443 100.19095215 52.30858887 99.3819043 51.43725586 98.54833984 C50.21852788 97.39289353 48.99843011 96.23889118 47.77734375 95.0859375 C46.77936012 94.14323502 46.77936012 94.14323502 45.76121521 93.18148804 C41.17313305 88.89775774 36.44177833 84.86249685 31.57374573 80.90153503 C0.14040288 55.06253847 0.14040288 55.06253847 -2.25645447 38.15039062 C-3.29715998 25.3759891 -2.06149423 12.61536881 0 0 Z " fill="#2F2F2F" transform="translate(1606,136)"/>
<path d="M0 0 C2.3741025 3.00198258 4.21649195 6.08338573 6.01171875 9.4609375 C6.59759766 10.55873535 7.18347656 11.6565332 7.78710938 12.78759766 C8.42079471 13.98328092 9.05425261 15.17908474 9.6875 16.375 C10.68035793 18.24397856 11.67391758 20.112583 12.66751099 21.98117065 C13.36137691 23.28637418 14.05478968 24.59181869 14.74777222 25.89749146 C16.95740349 30.05649603 19.18812861 34.2034142 21.43574524 38.3420105 C22.93286347 41.09925256 24.42401084 43.85970217 25.91470337 46.62042236 C26.6380582 47.9564819 27.36411374 49.2910828 28.09286499 50.62420654 C29.11092128 52.4877919 30.11900423 54.35644647 31.125 56.2265625 C31.70507812 57.29471191 32.28515625 58.36286133 32.8828125 59.46337891 C33.25148438 60.30046387 33.62015625 61.13754883 34 62 C33.505 62.99 33.505 62.99 33 64 C29.21749351 59.18590083 26.48358914 54.17435551 23.79638672 48.67700195 C21.6355939 44.25782841 19.38886999 39.89676913 17.0625 35.5625 C16.7310498 34.94415283 16.39959961 34.32580566 16.05810547 33.6887207 C15.03996685 31.79181686 14.02004048 29.89588169 13 28 C5.42011766 13.8879185 5.42011766 13.8879185 2 7.25 C1.608125 6.49203125 1.21625 5.7340625 0.8125 4.953125 C0 3 0 3 0 0 Z " fill="#3B3B3B" transform="translate(915,166)"/>
<path d="M0 0 C3.98087165 1.60177782 6.65493174 4.38230594 9.61328125 7.3828125 C10.14592087 7.91591034 10.67856049 8.44900818 11.2273407 8.9982605 C12.35339921 10.12733517 13.4770312 11.25883441 14.59838867 12.39257812 C16.29108744 14.10335871 17.99147489 15.80617492 19.69335938 17.5078125 C24.83301906 22.66471096 29.87536362 27.8468694 34.60668945 33.38623047 C36.4535125 35.52527031 38.42225412 37.52010931 40.4375 39.5 C41.45650391 40.50546875 41.45650391 40.50546875 42.49609375 41.53125 C42.99238281 42.0159375 43.48867187 42.500625 44 43 C43.505 43.99 43.505 43.99 43 45 C39.42205548 41.44700628 35.84758614 37.89056349 32.27612305 34.33105469 C31.06382752 33.12374935 29.8506313 31.91734766 28.63647461 30.71191406 C22.71184083 24.8287454 16.84243541 18.97892 11.42944336 12.61425781 C9.32293668 10.23539835 6.9741102 8.18789944 4.5625 6.125 C3.00451743 4.79223995 1.47179153 3.42737126 0 2 C0 1.34 0 0.68 0 0 Z " fill="#262626" transform="translate(1726,28)"/>
<path d="M0 0 C5.34867194 4.47431083 10.36051205 9.1863168 15.3046875 14.1015625 C16.06927277 14.86044769 16.83385803 15.61933289 17.62161255 16.4012146 C19.22471313 17.9949251 20.8264083 19.59005043 22.42675781 21.18652344 C24.88160718 23.63158083 27.34691554 26.06577432 29.8125 28.5 C31.37305187 30.05402898 32.93297042 31.60869427 34.4921875 33.1640625 C35.23064911 33.89017731 35.96911072 34.61629211 36.72994995 35.3644104 C37.4080069 36.04546844 38.08606384 36.72652649 38.78466797 37.42822266 C39.38310516 38.02301422 39.98154236 38.61780579 40.59811401 39.23062134 C42.12703946 41.16034179 42.59496543 42.59347715 43 45 C35.72186736 38.98762955 28.95541513 32.46741762 22.80859375 25.296875 C17.6781779 19.38486692 12.01109179 14.0018869 6.41210938 8.5390625 C5.58646484 7.724375 4.76082031 6.9096875 3.91015625 6.0703125 C3.15871338 5.33570801 2.40727051 4.60110352 1.63305664 3.84423828 C0 2 0 2 0 0 Z " fill="#252525" transform="translate(2370,28)"/>
<path d="M0 0 C4.92356611 4.13135854 9.5696026 8.42167719 14.10546875 12.97265625 C14.75195877 13.61818954 15.39844879 14.26372284 16.06452942 14.92881775 C17.41949195 16.28310458 18.77321178 17.63863579 20.12573242 18.99536133 C22.18881888 21.06382231 24.25721337 23.12686744 26.32617188 25.18945312 C27.64875839 26.51270018 28.9710348 27.83625728 30.29296875 29.16015625 C31.21338203 30.07753319 31.21338203 30.07753319 32.15238953 31.01344299 C35.32121874 34.1995618 38.26870171 37.41915194 41 41 C40.505 41.99 40.505 41.99 40 43 C37.13409251 40.15912732 34.27172303 37.31473864 31.41235352 34.46728516 C30.44257727 33.50248541 29.4718993 32.53859105 28.50024414 31.57568359 C23.33978537 26.46046866 18.30475939 21.31687488 13.57983398 15.79589844 C10.55499538 12.35737074 7.22436917 9.22150363 3.92382812 6.05078125 C2.58019807 4.7360282 1.28530024 3.37183112 0 2 C0 1.34 0 0.68 0 0 Z " fill="#262626" transform="translate(2687,30)"/>
<path d="M0 0 C4.62123013 1.54041004 5.59071101 5.20627804 7.75 9.375 C8.17410156 10.15617187 8.59820313 10.93734375 9.03515625 11.7421875 C9.43089844 12.495 9.82664062 13.2478125 10.234375 14.0234375 C10.59756836 14.71356934 10.96076172 15.40370117 11.33496094 16.11474609 C12 18 12 18 11 21 C10.62488281 20.29875 10.24976563 19.5975 9.86328125 18.875 C7.04084854 13.64247992 4.16246043 8.51931908 0.8828125 3.55859375 C0 2 0 2 0 0 Z " fill="#444444" transform="translate(856,59)"/>
<path d="M0 0 C0.66 0.33 1.32 0.66 2 1 C-0.97 3.97 -3.94 6.94 -7 10 C-6.01 11.485 -6.01 11.485 -5 13 C-5.33 13.99 -5.66 14.98 -6 16 C-7.32 14.68 -8.64 13.36 -10 12 C-8.52278578 8.54798361 -6.56205999 6.35038064 -3.875 3.75 C-3.15054688 3.04359375 -2.42609375 2.3371875 -1.6796875 1.609375 C-1.12539062 1.07828125 -0.57109375 0.5471875 0 0 Z " fill="#2D2D2D" transform="translate(2368,281)"/>
<path d="M0 0 C2.52394612 3.12488567 4.39701907 6.31314387 6 10 C5.67 10.66 5.34 11.32 5 12 C0.09846827 5.92560175 0.09846827 5.92560175 -0.3125 2.0625 C-0.209375 1.381875 -0.10625 0.70125 0 0 Z " fill="#353535" transform="translate(943,218)"/>
<path d="M0 0 C2.46800047 1.15173355 4.04783565 2.04783565 6 4 C5.67 4.99 5.34 5.98 5 7 C3.29115995 5.37660195 1.62553283 3.70680947 0 2 C0 1.34 0 0.68 0 0 Z " fill="#353535" transform="translate(1726,28)"/>
</svg>
